<?xml version="1.0" standalone="no"?>
<!DOCTYPE svg PUBLIC "-//W3C//DTD SVG 20010904//EN"
 "http://www.w3.org/TR/2001/REC-SVG-20010904/DTD/svg10.dtd">
<svg version="1.0" xmlns="http://www.w3.org/2000/svg"
 width="1280.000000pt" height="915.000000pt" viewBox="0 0 1280.000000 915.000000"
 preserveAspectRatio="xMidYMid meet">
<metadata>
Created by potrace 1.15, written by Peter Selinger 2001-2017
</metadata>
<g transform="translate(0.000000,915.000000) scale(0.100000,-0.100000)"
fill="#000000" stroke="none">
<path d="M4355 9139 c-147 -21 -277 -76 -440 -184 -192 -128 -368 -310 -435
-451 -51 -106 -73 -238 -50 -298 18 -49 27 -26 26 67 -1 80 2 99 26 150 106
226 479 537 760 633 212 72 412 71 658 -5 120 -36 140 -41 140 -31 0 12 -149
77 -215 94 -137 34 -331 45 -470 25z"/>
<path d="M7385 9099 c-110 -38 -112 -54 -7 -63 118 -11 191 -25 253 -51 35
-15 95 -28 165 -35 173 -19 303 -59 347 -108 17 -19 17 -28 -9 -238 -15 -121
-30 -229 -35 -241 -5 -13 -17 -23 -28 -23 -27 0 -367 -73 -469 -100 -46 -12
-93 -31 -105 -42 l-22 -19 73 5 c67 4 73 3 67 -12 -105 -269 -198 -680 -211
-940 -4 -86 -11 -128 -26 -159 -23 -49 -134 -155 -193 -185 -50 -25 -75 -47
-75 -65 0 -11 9 -12 35 -7 42 8 44 25 -15 -186 -40 -142 -104 -415 -140 -589
-51 -249 -52 -273 -57 -790 l-5 -494 -71 6 c-96 6 -110 23 -170 203 -113 343
-183 890 -158 1237 15 203 21 223 76 247 23 10 46 23 49 29 10 15 -25 29 -60
24 -26 -4 -37 1 -69 34 -83 85 -170 323 -220 599 -25 138 -31 402 -11 493 17
81 33 106 74 114 34 8 92 43 92 57 0 5 -13 10 -30 10 -51 0 -328 -30 -460 -50
-68 -10 -128 -16 -134 -13 -5 4 -7 93 -3 228 6 232 4 265 -19 265 -20 0 -32
-37 -50 -149 -46 -297 -56 -321 -142 -365 -57 -29 -84 -36 -310 -85 -212 -46
-325 -79 -317 -92 4 -5 33 -9 67 -9 44 0 59 -3 56 -12 -3 -7 -37 -112 -76
-233 l-71 -220 -123 -120 c-68 -67 -361 -352 -653 -635 -291 -283 -624 -607
-740 -720 -278 -273 -2471 -2408 -2840 -2766 -427 -414 -477 -456 -551 -470
-39 -7 -64 -20 -64 -34 0 -17 55 -41 172 -75 220 -64 221 -65 1073 -629 525
-348 658 -439 710 -486 l30 -28 290 -5 c427 -9 823 -42 871 -74 53 -34 13 -48
-131 -46 -55 1 -180 2 -277 2 -97 0 -213 5 -257 10 -45 6 -206 15 -359 21
-537 20 -718 30 -792 45 -41 8 -160 18 -265 23 -104 5 -199 12 -210 16 -16 6
-15 4 5 -13 67 -56 291 -96 395 -71 48 12 56 11 86 -6 47 -28 47 -41 -3 -54
-87 -22 -111 -42 -66 -53 37 -10 170 13 213 36 34 19 54 22 135 20 55 0 114
-8 140 -16 l45 -16 -72 0 c-83 -1 -99 -14 -59 -46 56 -45 179 -64 295 -46 92
14 101 20 66 39 l-29 15 26 13 c15 8 57 18 95 24 77 11 330 13 412 3 50 -6 52
-7 30 -19 l-24 -12 27 -13 c23 -10 50 -8 165 14 76 15 208 34 294 42 143 15
163 15 225 0 103 -23 177 -51 300 -110 124 -60 168 -101 229 -210 56 -100 58
-94 -33 -88 -83 6 -112 -6 -70 -28 56 -30 195 -40 608 -46 453 -5 569 1 647
38 76 36 85 37 121 12 44 -29 171 -78 283 -108 49 -13 104 -33 122 -44 20 -12
66 -24 117 -30 100 -13 402 -16 445 -5 17 4 74 29 128 56 l98 49 50 -37 c94
-69 302 -137 459 -150 126 -11 317 33 449 102 81 43 151 45 301 9 127 -31 213
-56 208 -60 -2 -2 -91 -22 -197 -44 -107 -23 -196 -43 -198 -45 -2 -2 36 -6
83 -10 103 -8 195 -1 287 22 65 15 70 15 160 -6 113 -27 302 -62 336 -62 23 0
24 2 10 15 -8 8 -66 26 -129 40 -134 29 -268 69 -295 88 -16 13 -14 15 26 21
24 4 65 14 90 23 44 16 48 16 105 -5 71 -27 201 -44 258 -35 22 3 54 17 69 29
16 13 53 31 84 40 61 18 53 19 358 -46 142 -31 290 -29 465 5 202 40 230 41
345 11 161 -40 385 -61 400 -36 3 6 1 10 -4 10 -6 0 -11 6 -11 14 0 22 47 25
119 6 92 -24 429 -43 701 -38 213 3 216 3 278 32 l63 29 142 -21 c140 -22 338
-43 387 -41 57 1 -20 19 -199 44 -101 15 -229 38 -284 52 l-101 25 -62 -26
c-127 -52 -368 -59 -509 -15 -53 16 -83 20 -130 15 -153 -16 -272 -18 -294 -6
-21 11 -21 13 -7 29 23 25 20 29 -16 33 l-33 3 28 19 c26 17 55 20 271 26 142
4 250 11 261 17 17 10 16 12 -15 17 -19 3 -115 7 -212 8 -199 4 -216 9 -181
55 25 34 41 34 213 4 152 -28 191 -25 298 22 93 41 119 45 165 20 26 -14 56
-17 162 -15 91 2 147 -2 185 -13 74 -20 116 -19 185 5 66 23 95 24 174 10 31
-5 106 -14 167 -19 61 -6 145 -20 188 -31 61 -17 99 -21 170 -18 96 4 142 20
215 73 49 36 87 32 159 -15 84 -54 119 -71 177 -86 81 -22 84 -16 13 21 -37
19 -104 59 -148 89 -44 30 -96 58 -116 62 -54 10 -130 -2 -254 -41 -120 -38
-192 -44 -304 -25 -33 5 -116 14 -185 20 -100 9 -130 15 -146 30 -19 18 -24
18 -68 5 -69 -21 -295 -38 -417 -33 -58 3 -133 13 -168 23 -59 17 -68 17 -130
2 -91 -22 -228 -37 -340 -37 -152 0 -167 23 -64 96 37 27 83 63 102 80 19 17
63 42 98 54 73 27 144 85 174 144 14 26 23 67 26 114 5 73 5 73 -19 68 -67
-15 -562 -40 -1108 -57 -368 -11 -385 -11 -398 7 -7 10 -13 22 -13 26 0 29
161 41 770 58 750 21 1366 51 1415 70 32 12 33 45 1 65 -13 9 -48 20 -79 25
-68 11 -107 30 -163 82 -56 51 -65 82 -109 353 -85 516 -179 912 -471 1985
-140 512 -229 794 -359 1133 -31 82 -55 156 -53 164 5 28 51 52 163 86 113 35
188 68 201 88 4 7 0 18 -10 24 -23 17 -74 6 -302 -64 -253 -79 -259 -80 -292
-49 -15 13 -40 30 -56 38 -15 8 -49 37 -74 65 -53 58 -382 470 -666 832 l-197
253 -10 188 c-12 217 0 486 23 542 9 22 29 43 51 55 20 10 34 23 31 27 -3 4
-35 8 -72 8 -37 0 -78 6 -92 13 -50 25 -108 176 -147 380 -25 134 -25 552 0
652 25 97 57 149 106 168 43 17 58 34 45 47 -5 5 -88 -6 -184 -25 -172 -32
-419 -69 -425 -63 -2 2 3 55 10 118 18 154 36 393 38 512 2 113 -8 135 -45 96
-13 -13 -28 -32 -33 -42 -10 -17 -16 -17 -63 -7 -29 6 -131 11 -225 11 -171 0
-173 0 -232 30 -76 37 -177 41 -270 9z m687 -110 c66 -14 108 -38 108 -61 0
-25 -29 -23 -103 8 -34 15 -107 35 -162 45 l-100 17 102 1 c56 1 126 -4 155
-10z m558 -636 c-1 -10 -8 -45 -17 -78 -13 -49 -16 -121 -18 -390 -1 -302 -3
-332 -20 -358 -40 -61 -307 -288 -322 -273 -9 9 36 63 175 212 125 134 173
194 116 144 -15 -14 -106 -99 -202 -188 -96 -90 -190 -170 -209 -179 -19 -8
-103 -25 -187 -38 -186 -29 -326 -65 -430 -110 l-78 -34 6 92 c19 251 55 497
95 655 19 74 68 219 116 342 l18 45 216 38 c119 20 329 59 466 86 138 27 256
50 263 50 6 1 12 -7 12 -16z m-2622 -630 c-10 -2 -28 -2 -40 0 -13 2 -5 4 17
4 22 1 32 -1 23 -4z m223 -40 c6 -15 14 -142 19 -283 10 -275 16 -323 61 -503
16 -65 29 -124 29 -130 0 -7 -27 -25 -60 -40 -33 -15 -84 -47 -113 -71 -30
-24 -63 -49 -75 -55 -25 -13 -72 -15 -72 -2 0 16 81 80 175 138 107 67 100 62
93 68 -10 11 -143 -66 -236 -136 -100 -75 -155 -104 -180 -94 -23 9 12 41 196
177 89 67 160 123 158 126 -7 6 -127 -74 -265 -177 -155 -115 -180 -128 -280
-140 -148 -19 -281 -61 -546 -171 -88 -37 -164 -65 -169 -62 -13 8 1 420 19
536 27 177 56 218 399 549 l205 197 288 50 c158 27 300 49 316 49 21 1 30 -5
38 -26z m-832 -190 c-57 -54 -156 -148 -220 -210 -63 -62 -118 -113 -121 -113
-18 0 49 213 98 311 l33 67 63 11 c72 14 179 28 222 30 27 1 20 -8 -75 -96z
m3231 -22 c0 -53 -272 -258 -294 -222 -11 16 251 241 280 241 8 0 14 -9 14
-19z m23 -123 c14 -29 15 -40 6 -61 -12 -26 -37 -43 -47 -32 -3 3 2 21 11 40
24 49 22 51 -20 17 -86 -67 -114 -42 -38 34 25 25 51 44 58 42 7 -2 20 -20 30
-40z m55 -144 c17 -4 32 -9 32 -13 0 -14 -483 -98 -590 -103 l-55 -3 -3 53
c-2 36 1 54 10 57 54 21 508 27 606 9z m-750 -86 c4 -59 -9 -69 -138 -97 -108
-23 -465 -91 -482 -91 -25 0 31 43 97 75 121 58 463 168 505 162 10 -2 16 -17
18 -49z m854 -10 c8 -16 14 -126 19 -363 4 -187 12 -385 18 -440 28 -253 220
-931 341 -1205 65 -145 65 -140 -24 -171 -42 -14 -76 -23 -76 -20 1 3 14 22
30 41 52 60 32 70 -29 15 -47 -42 -106 -69 -127 -57 -13 7 -8 17 28 58 76 86
75 91 -2 20 -103 -95 -130 -106 -262 -106 -60 0 -107 3 -107 8 1 4 83 86 182
182 100 96 190 186 202 200 36 45 -49 -29 -210 -181 -159 -150 -220 -197 -256
-201 -60 -7 -30 34 198 264 268 272 252 270 -32 -3 -110 -106 -221 -212 -247
-237 l-46 -45 -724 -47 c-397 -25 -725 -44 -729 -41 -6 8 6 443 21 701 20 349
53 597 116 870 45 191 117 418 144 453 26 33 31 34 390 102 162 31 477 91 700
135 223 43 419 80 435 83 17 2 31 5 32 6 1 0 8 -9 15 -21z m-3865 -166 c-17
-83 -28 -221 -36 -422 -11 -301 -17 -314 -157 -346 -84 -19 -134 -40 -134 -55
0 -12 66 -7 103 7 12 4 3 -23 -34 -103 -28 -59 -60 -130 -70 -158 -11 -27 -25
-60 -31 -72 -28 -55 -252 -229 -1988 -1544 -454 -344 -1023 -778 -1265 -964
-623 -480 -780 -600 -817 -625 -67 -44 1339 1339 2572 2530 338 327 856 829
1150 1115 577 562 685 665 702 665 6 0 8 -11 5 -28z m1418 -232 c4 -6 -9 -17
-28 -25 -20 -8 -56 -33 -82 -55 -49 -42 -105 -57 -86 -22 14 27 41 48 105 81
62 33 81 37 91 21z m20 -63 c-8 -19 -102 -80 -116 -75 -8 3 9 22 40 46 52 41
85 54 76 29z m35 -56 c0 -21 -22 -33 -45 -25 -18 7 -19 16 -3 32 19 19 48 15
48 -7z m-111 -70 c123 -11 142 -22 74 -45 -53 -18 -410 -80 -548 -95 -110 -13
-117 -10 -113 47 4 65 34 84 141 93 124 9 330 9 446 0z m-839 -65 c0 -8 -165
-138 -205 -161 -48 -29 -197 -65 -265 -64 -43 0 -44 0 -25 15 68 53 495 234
495 210z m76 -21 c-3 -8 -88 -131 -189 -273 -101 -141 -297 -421 -437 -622
-283 -408 -462 -659 -470 -660 -3 0 -2 55 1 122 11 239 88 379 493 903 111
142 241 276 306 315 24 14 68 50 99 80 44 44 182 147 200 149 2 1 1 -6 -3 -14z
m111 -57 c-2 -13 -4 -5 -4 17 -1 22 1 32 4 23 2 -10 2 -28 0 -40z m829 -306
c0 -251 5 -369 17 -462 28 -211 40 -275 119 -614 l23 -98 -30 -25 c-17 -13
-71 -55 -121 -94 l-92 -70 -91 37 c-108 45 -115 27 74 187 125 106 156 137
137 137 -12 0 -44 -25 -169 -132 -114 -97 -166 -128 -215 -128 -84 1 -62 27
190 230 84 67 151 125 148 127 -6 6 -32 -12 -211 -146 -216 -162 -318 -217
-340 -182 -9 15 26 47 256 237 307 253 277 249 -52 -7 -112 -87 -224 -170
-251 -184 -47 -26 -158 -44 -158 -25 0 9 129 118 361 303 149 119 196 162 152
139 -59 -32 -386 -287 -478 -374 -28 -26 -63 -52 -78 -57 -34 -13 -277 -24
-277 -13 0 11 188 195 318 311 56 51 102 95 102 97 0 26 -219 -155 -362 -300
-94 -94 -122 -116 -163 -129 -55 -18 -314 -67 -353 -67 -22 0 -24 3 -18 35 14
74 207 638 279 817 89 220 200 453 251 531 48 72 84 87 311 127 99 17 299 55
445 84 146 29 267 51 270 49 3 -3 5 -156 6 -341z m-896 294 c0 -17 -27 -29
-35 -16 -4 6 -3 15 0 20 9 15 35 12 35 -4z m3625 -481 c307 -384 495 -628 495
-639 0 -14 -34 0 -288 118 -147 68 -284 131 -304 139 -21 9 -42 26 -48 39 -14
31 -136 531 -145 590 -4 26 -5 55 -1 63 12 32 61 -21 291 -310z m-4185 252 c0
-7 -17 -29 -37 -49 -45 -43 -305 -248 -315 -248 -19 0 5 97 41 167 22 44 79
99 120 115 26 10 111 24 164 27 16 0 27 -4 27 -12z m262 -207 c-175 -349 -379
-931 -507 -1450 -109 -443 -166 -785 -241 -1455 -31 -276 -36 -355 -44 -720
-9 -411 -15 -510 -29 -520 -13 -8 -697 93 -733 108 -19 8 -46 29 -60 47 -15
19 -38 35 -58 39 l-32 6 47 53 c55 61 39 71 -26 16 -73 -61 -58 -18 22 62 40
40 70 76 67 80 -4 3 -42 -21 -85 -54 -97 -74 -123 -88 -123 -68 0 17 77 112
135 166 20 19 41 43 46 53 19 35 -12 16 -94 -56 -86 -76 -126 -107 -140 -107
-17 0 17 42 143 180 72 78 129 145 126 148 -6 5 -41 -25 -211 -180 -186 -171
-160 -114 57 125 81 89 148 166 148 170 0 15 -97 -72 -181 -161 -83 -90 -168
-166 -176 -158 -13 12 77 129 211 275 221 241 219 266 -4 46 -88 -87 -163
-155 -167 -152 -10 11 79 133 173 237 47 52 113 129 147 170 l62 75 -53 -44
c-46 -38 -149 -145 -250 -261 -32 -37 -48 -36 -39 2 9 35 163 228 283 356 68
72 99 112 88 112 -21 0 -201 -180 -275 -275 -44 -57 -55 -65 -57 -48 -7 45 57
137 251 362 59 69 105 127 102 129 -9 9 -93 -69 -200 -186 -60 -67 -111 -120
-112 -118 -2 1 10 43 26 93 46 148 106 242 303 471 49 57 87 107 83 110 -8 9
-166 -151 -232 -235 -32 -40 -59 -70 -61 -68 -9 8 29 99 55 134 15 20 78 98
141 175 62 76 110 141 107 145 -4 3 -52 -43 -108 -102 -100 -106 -136 -131
-121 -84 15 49 39 82 101 140 70 66 223 250 223 269 0 19 -104 -87 -193 -196
-44 -55 -83 -94 -85 -87 -2 7 17 47 42 89 26 42 59 103 74 135 15 31 32 57 39
57 7 0 31 16 53 36 45 41 145 163 138 169 -2 2 -35 -24 -73 -58 l-69 -62 27
45 c42 71 220 329 333 481 57 76 257 361 445 631 380 548 621 889 625 885 2
-2 -36 -81 -84 -177z m-349 40 c-10 -17 -55 -79 -100 -138 -271 -355 -440
-623 -683 -1079 -330 -623 -558 -1229 -770 -2043 -91 -348 -126 -470 -137
-481 -10 -10 -240 44 -257 61 -7 7 2 23 29 51 l40 41 -59 -38 c-72 -48 -80
-48 -316 -6 -96 18 -260 43 -364 57 -105 14 -191 27 -193 29 -4 4 159 136 257
207 124 90 310 216 582 393 247 161 338 227 212 156 -248 -141 -827 -539
-1069 -734 l-30 -24 -220 19 c-121 10 -236 21 -255 25 l-35 6 40 34 c199 172
564 456 865 672 306 220 355 262 155 134 -226 -146 -812 -587 -1023 -770 -35
-30 -80 -61 -100 -68 -40 -14 -122 -19 -122 -6 0 4 46 48 103 98 332 295 866
690 1357 1004 161 102 155 98 149 105 -12 11 -476 -292 -779 -510 -357 -256
-600 -447 -772 -606 l-106 -99 -234 0 c-265 0 -392 -9 -644 -45 -98 -14 -180
-23 -182 -20 -14 14 61 75 778 626 861 663 1331 1022 1945 1488 654 495 1384
1054 1710 1309 127 99 234 181 238 181 5 1 0 -13 -10 -29z m4410 -625 c169
-77 401 -198 404 -211 2 -6 -24 -23 -58 -39 -92 -41 -382 -136 -390 -127 -19
20 -152 345 -184 449 -10 31 21 22 228 -72z m-4955 -383 c-4 -132 -8 -154 -30
-203 -20 -42 -264 -391 -425 -605 -70 -94 0 69 214 501 99 199 234 455 241
455 2 0 3 -67 0 -148z m5637 122 c47 -48 151 -320 276 -726 107 -349 172 -584
449 -1626 16 -62 30 -119 30 -126 0 -33 -465 -579 -682 -802 -87 -89 -158
-164 -158 -168 0 -53 390 361 692 734 73 91 141 166 151 168 14 3 17 -4 17
-46 0 -45 -6 -58 -56 -128 -106 -148 -282 -357 -486 -577 -70 -76 -128 -143
-128 -148 0 -49 416 406 597 653 35 47 70 89 79 92 21 8 36 -36 24 -70 -30
-78 -290 -413 -435 -561 -101 -103 -120 -112 -295 -138 -122 -18 -541 -57
-548 -51 -6 7 67 88 338 368 253 263 427 456 513 571 64 86 71 97 59 97 -4 0
-44 -44 -88 -97 -43 -54 -128 -154 -188 -223 -133 -151 -625 -645 -682 -683
-25 -17 -61 -30 -92 -34 -58 -6 -125 3 -117 17 4 6 45 43 93 82 247 206 636
610 832 863 114 148 90 125 -202 -200 -240 -268 -416 -443 -618 -620 -174
-152 -202 -168 -290 -169 -78 -1 -120 20 -120 60 0 35 14 59 80 134 198 227
745 969 726 987 -2 3 -33 -34 -68 -82 -159 -221 -311 -423 -427 -565 -147
-181 -322 -365 -342 -358 -23 8 -22 65 1 103 12 19 79 109 150 199 162 209
274 359 379 508 87 124 174 269 166 277 -7 6 -13 -3 -152 -204 -202 -291 -486
-659 -566 -734 -50 -46 -65 8 -20 74 14 22 81 117 148 210 123 171 255 371
315 477 52 94 28 89 -31 -6 -73 -118 -303 -455 -403 -590 l-80 -109 -12 47
c-20 78 -9 102 176 371 65 94 130 192 145 218 61 107 8 46 -153 -175 -93 -128
-179 -241 -190 -251 -20 -18 -21 -18 -35 10 -8 15 -49 120 -90 233 -42 113
-117 315 -167 450 -50 135 -174 470 -276 745 -102 275 -203 547 -224 604 l-39
105 40 72 c44 81 89 134 113 134 22 0 21 -3 -23 -84 -21 -39 -42 -82 -45 -96
l-7 -25 23 26 c13 14 47 60 76 102 46 68 127 145 139 133 3 -2 -30 -58 -72
-123 -98 -149 -123 -199 -108 -214 12 -12 10 -14 136 183 64 99 128 173 169
194 15 8 28 12 28 9 0 -12 -32 -67 -119 -202 -107 -168 -124 -200 -111 -208 5
-3 42 43 81 102 161 240 247 343 286 343 18 0 24 -4 19 -15 -3 -8 -54 -90
-114 -182 -147 -227 -181 -286 -152 -268 5 3 64 88 131 188 143 212 212 301
254 327 37 23 105 37 105 21 0 -6 -30 -54 -66 -108 -62 -91 -118 -166 -288
-385 -37 -49 -64 -88 -59 -88 5 0 47 46 94 103 86 103 134 164 293 380 88 119
151 175 182 163 14 -5 12 -12 -12 -54 -54 -93 -259 -400 -367 -550 -60 -84
-107 -155 -104 -159 13 -12 183 213 360 477 161 241 211 307 251 331 30 18 76
26 76 12 0 -17 -164 -294 -337 -571 -64 -101 -113 -185 -111 -188 7 -6 94 120
253 366 187 290 260 387 310 412 22 12 61 38 86 59 26 22 50 39 53 39 34 0
-83 -201 -440 -755 -143 -221 -157 -245 -151 -252 13 -12 307 433 527 796
l133 221 56 21 c76 28 404 139 413 139 4 0 14 -7 23 -16z m-3357 -251 c2 -25
-6 -41 -48 -86 l-51 -56 53 29 c29 17 59 30 65 30 15 0 48 -61 57 -106 8 -38
-12 -59 -49 -50 -28 7 -32 23 -10 52 22 30 18 36 -15 19 -36 -19 -87 -19 -120
0 -14 8 -39 14 -57 15 -17 0 -34 4 -38 10 -13 21 171 186 199 177 6 -2 12 -17
14 -34z m2372 -12 c0 -9 -33 -24 -80 -36 -39 -11 -10 14 36 30 48 17 44 17 44
6z m-3300 -64 c20 -32 27 -87 12 -87 -26 0 -90 109 -77 130 10 15 44 -7 65
-43z m-93 -16 c9 -32 10 -49 1 -64 -10 -20 -11 -20 -24 -2 -18 24 -19 118 -2
113 7 -3 18 -24 25 -47z m-247 30 c0 -38 -51 -111 -77 -111 -24 0 -14 36 23
78 34 40 54 52 54 33z m659 -27 c220 -45 381 -99 626 -210 l130 -59 -65 -7
c-122 -14 -554 -39 -780 -45 -267 -7 -269 -6 -216 73 38 55 83 101 118 118 13
6 24 22 26 34 3 18 -3 25 -28 33 -33 12 -65 61 -56 86 8 19 63 13 245 -23z
m2286 -94 c-214 -71 -395 -130 -401 -130 -6 0 -14 18 -17 41 -3 24 -21 64 -44
97 -21 32 -39 60 -41 63 -4 8 188 27 408 39 260 14 294 16 395 18 l90 2 -390
-130z m-3035 113 c0 -5 -18 -37 -40 -73 -22 -36 -40 -70 -40 -76 0 -7 13 -26
28 -42 25 -26 102 -159 102 -175 0 -10 -137 -28 -345 -45 -115 -10 -211 -17
-213 -16 -2 1 9 62 25 135 24 117 31 138 57 165 35 35 131 70 296 108 117 27
130 29 130 19z m3504 -23 c-10 -10 -153 -61 -209 -74 -63 -15 -7 13 95 48 111
38 130 42 114 26z m-3354 -18 c0 -24 -28 -62 -46 -62 -19 0 -18 9 6 48 22 35
40 42 40 14z m67 -23 c14 -14 6 -39 -12 -39 -18 0 -28 17 -21 35 6 18 18 19
33 4z m2071 5 c12 -4 22 -10 22 -16 0 -12 -617 -832 -673 -893 -38 -41 -48
-48 -59 -37 -30 30 2 534 40 612 13 27 26 37 55 44 20 5 37 15 37 21 0 6 -28
27 -62 46 -69 38 -151 136 -146 173 3 19 12 22 98 28 231 19 650 32 688 22z
m917 -63 c-13 -12 -192 -71 -213 -70 -19 1 20 20 113 55 61 23 117 32 100 15z
m-839 -58 c-4 -32 -13 -112 -21 -178 -20 -179 -57 -298 -253 -805 -309 -800
-374 -961 -397 -980 -12 -10 -17 -7 -25 14 -48 126 -100 570 -100 850 l0 130
339 450 c355 473 436 576 453 576 7 0 8 -20 4 -57z m184 12 c10 -12 10 -18 0
-30 -20 -24 -50 -19 -50 8 0 39 26 50 50 22z m-100 -4 c0 -15 -28 -33 -40 -26
-8 5 -8 11 1 21 13 15 39 19 39 5z m-946 -50 c34 -37 11 -32 -25 5 -21 23 -26
33 -14 26 11 -5 29 -20 39 -31z m-1074 5 c0 -20 -49 -76 -66 -76 -20 0 -18 44
4 62 16 15 38 25 55 27 4 1 7 -5 7 -13z m2495 3 c-12 -19 -105 -47 -105 -32 0
5 15 17 33 26 37 18 82 22 72 6z m-2837 -41 c16 -16 15 -45 -2 -51 -15 -6 -29
6 -39 35 -10 28 18 39 41 16z m127 -52 c0 -53 -23 -82 -46 -59 -18 18 8 115
30 111 12 -3 16 -15 16 -52z m2340 44 c4 -6 -7 -10 -25 -10 -18 0 -29 4 -25
10 3 6 15 10 25 10 10 0 22 -4 25 -10z m216 -6 c-26 -19 -87 -35 -96 -26 -10
10 58 41 90 42 l29 0 -23 -16z m-2455 -29 c7 -30 -2 -75 -16 -75 -18 0 -30 48
-20 75 5 14 14 25 20 25 5 0 12 -11 16 -25z m2130 -29 c7 -31 -3 -66 -21 -66
-15 0 -25 22 -25 54 0 42 36 51 46 12z m102 12 c34 -34 -17 -126 -56 -101 -20
13 -18 57 4 91 16 25 34 28 52 10z m163 -51 c-1 -4 -1 -13 -1 -19 0 -7 -8 -22
-16 -33 -15 -20 -15 -20 -30 -1 -17 24 -18 63 -1 69 15 5 49 -6 48 -16z
m-1941 -17 c0 -5 -22 -10 -50 -10 -27 0 -50 5 -50 10 0 6 23 10 50 10 28 0 50
-4 50 -10z m774 0 c22 -8 24 -12 16 -37 -5 -15 -19 -84 -32 -153 -51 -279 -17
-1049 68 -1510 46 -255 285 -1029 395 -1284 56 -129 52 -152 -19 -97 -21 16
-85 45 -149 66 -62 20 -113 38 -113 41 0 2 26 17 58 33 60 31 103 60 88 61 -5
0 -43 -18 -85 -41 l-77 -41 -144 42 c-310 89 -284 79 -263 102 10 11 89 72
175 136 87 64 156 118 153 120 -8 8 -137 -79 -358 -242 l-27 -20 -203 32
c-384 61 -643 80 -1252 91 -482 9 -498 11 -525 69 -31 67 -35 455 -9 847 45
689 152 1445 226 1599 14 30 22 35 62 41 94 12 289 25 376 25 l90 -1 -26 -22
c-14 -12 -69 -56 -122 -97 -53 -41 -97 -78 -97 -83 0 -9 27 8 157 100 120 85
166 110 230 123 26 5 176 19 333 30 157 11 431 31 610 45 179 14 345 26 370
28 25 2 50 4 57 5 6 1 23 -2 37 -8z m-1081 -27 c-24 -2 -62 -2 -85 0 -24 2 -5
4 42 4 47 0 66 -2 43 -4z m-335 -22 c-20 -4 -56 -4 -80 -1 -35 6 -29 8 37 8
59 0 71 -2 43 -7z m-285 -28 c-18 -2 -48 -2 -65 0 -18 2 -4 4 32 4 36 0 50 -2
33 -4z m2575 -71 c2 -18 -1 -32 -6 -32 -12 0 -22 24 -22 52 0 32 25 15 28 -20z
m112 3 c0 -9 -6 -24 -12 -35 -10 -15 -10 -22 0 -32 29 -29 0 -138 -38 -138
-11 0 -24 8 -27 17 -9 23 13 191 27 209 15 17 50 2 50 -21z m-22 -287 c2 -32
-2 -50 -14 -62 -16 -16 -15 -18 5 -32 11 -8 21 -19 21 -24 0 -11 -36 -35 -66
-44 -18 -6 -23 -2 -28 27 -14 72 32 196 68 184 6 -2 12 -24 14 -49z m101 -88
c13 -34 33 -133 51 -263 17 -115 53 -351 80 -525 117 -739 159 -1071 142
-1121 -18 -52 -159 -252 -336 -479 -52 -66 -56 -95 -6 -47 31 30 67 76 237
305 122 164 129 171 137 133 31 -152 30 -160 -5 -218 -56 -92 -157 -212 -193
-229 -19 -9 -81 -23 -138 -31 -180 -26 -208 -19 -183 43 15 35 30 44 20 12 -3
-11 -4 -20 -1 -20 10 0 347 466 376 520 30 56 -21 -6 -169 -203 -87 -117 -171
-223 -186 -237 l-28 -25 7 38 c7 37 6 38 -15 32 -19 -6 -21 -4 -15 11 10 26
23 143 36 314 22 302 101 1294 120 1515 11 127 23 301 27 388 3 87 9 154 13
150 4 -4 17 -33 29 -63z m-449 -242 c-121 -394 -371 -1163 -404 -1240 -19 -44
-33 -48 -42 -13 -9 37 3 105 43 235 63 208 423 1154 431 1131 2 -5 -11 -56
-28 -113z m328 82 c2 -19 1 -59 -3 -89 -13 -102 -85 -133 -85 -36 0 47 22 128
41 151 21 25 44 12 47 -26z m235 -65 c14 -50 178 -798 313 -1423 22 -101 33
-175 29 -192 -6 -29 -84 -144 -92 -136 -9 9 -283 1773 -283 1820 0 24 18 -14
33 -69z m177 -45 c86 -216 407 -1083 476 -1284 39 -113 41 -142 17 -185 -21
-36 -13 -49 18 -27 29 20 49 5 49 -35 0 -33 -44 -89 -58 -74 -10 10 -60 163
-432 1320 -65 203 -120 382 -120 390 0 17 9 -3 50 -105z m-683 43 c-3 -10 -5
-2 -5 17 0 19 2 27 5 18 2 -10 2 -26 0 -35z m616 -44 c-8 -29 -13 -23 -13 14
0 22 3 28 9 18 5 -7 6 -22 4 -32z m47 -137 c0 -19 -4 -31 -10 -27 -13 8 -32
83 -24 97 10 16 33 -31 34 -70z m-65 43 c3 -14 7 -36 10 -50 3 -14 1 -25 -4
-25 -10 0 -31 54 -31 81 0 28 19 23 25 -6z m-336 -14 c10 -6 11 -17 6 -37 -4
-16 -11 -57 -15 -92 -9 -69 -30 -102 -65 -102 -32 0 -36 29 -20 124 10 60 20
86 36 99 24 19 37 21 58 8z m-301 -18 c-3 -19 -48 -32 -48 -14 0 10 28 30 43
31 5 0 7 -8 5 -17z m92 -10 c0 -19 -3 -24 -10 -17 -6 6 -8 18 -4 27 9 24 14
21 14 -10z m64 -118 c-11 -150 -166 -1731 -184 -1878 -5 -42 -15 -87 -21 -99
-12 -22 -12 -22 -38 9 -37 45 -111 218 -124 288 -13 77 -7 114 127 752 168
796 215 1012 223 1027 14 23 23 -27 17 -99z m-194 30 c-17 -21 -30 -19 -30 5
0 24 33 46 38 24 2 -8 -2 -21 -8 -29z m110 -10 c0 -14 -4 -25 -10 -25 -5 0
-10 11 -10 25 0 14 5 25 10 25 6 0 10 -11 10 -25z m604 -32 c4 -13 3 -30 -2
-39 -7 -13 -11 -7 -16 24 -3 22 -9 49 -12 59 -6 16 -5 15 8 -2 9 -11 18 -30
22 -42z m72 1 c3 -19 3 -38 -1 -42 -12 -12 -35 31 -35 66 0 29 2 33 15 22 8
-7 17 -28 21 -46z m-796 -28 c0 -23 -31 -49 -43 -37 -7 7 -5 17 8 31 21 23 35
26 35 6z m70 -183 c-40 -218 -130 -665 -200 -989 -39 -176 -70 -324 -70 -327
0 -4 -4 -7 -9 -7 -18 0 -34 73 -28 129 5 65 77 370 218 930 54 216 99 396 100
400 0 3 3 1 5 -6 3 -6 -4 -65 -16 -130z m688 75 c46 -119 56 -181 30 -186 -11
-2 -19 5 -22 20 -3 13 -12 57 -20 98 -8 41 -18 85 -22 98 -13 45 14 21 34 -30z
m70 27 c7 -14 12 -35 12 -45 0 -34 -27 -22 -44 20 -20 50 -20 50 2 50 11 0 24
-11 30 -25z m-860 -7 c7 -7 8 -17 1 -30 -14 -26 -39 -23 -39 5 0 36 16 47 38
25z m356 6 c22 -8 20 -26 -5 -48 -19 -16 -21 -25 -15 -74 8 -70 -10 -105 -52
-100 -25 3 -27 6 -25 43 5 71 24 146 44 166 20 20 29 22 53 13z m-304 -29 c0
-14 -4 -25 -10 -25 -5 0 -10 11 -10 25 0 14 5 25 10 25 6 0 10 -11 10 -25z
m-20 -94 c0 -29 -22 -61 -41 -61 -12 0 -2 36 19 68 19 29 22 28 22 -7z m-75 0
c3 -10 1 -31 -5 -46 -9 -23 -13 -25 -25 -15 -18 15 -20 51 -3 68 17 17 26 15
33 -7z m962 -54 c4 -30 2 -37 -10 -37 -18 0 -47 37 -47 60 0 9 5 21 12 28 17
17 37 -5 45 -51z m-989 -79 c4 -44 -21 -70 -44 -46 -14 14 -14 19 0 52 19 46
40 43 44 -6z m71 3 c-6 -17 -17 -35 -25 -42 -11 -9 -14 -7 -14 10 0 30 18 61
35 61 11 0 12 -6 4 -29z m951 -32 c22 -43 27 -103 8 -97 -24 8 -50 57 -55 102
-5 40 -3 46 11 40 9 -4 26 -24 36 -45z m-616 33 c3 -5 -3 -57 -13 -117 -18
-110 -34 -140 -71 -133 -20 4 -26 117 -10 172 17 56 77 106 94 78z m525 -23
c12 -36 14 -72 5 -82 -12 -11 -42 12 -48 38 -8 32 3 75 19 75 7 0 18 -14 24
-31z m-959 -102 c0 -37 -24 -77 -46 -77 -10 0 -14 12 -14 43 0 46 13 67 42 67
14 0 18 -8 18 -33z m63 -9 c-8 -42 -21 -68 -34 -68 -11 0 -3 52 13 83 15 28
28 19 21 -15z m927 -60 c25 -42 25 -58 -1 -58 -14 0 -25 11 -35 35 -25 60 3
77 36 23z m102 15 c23 -27 29 -67 14 -88 -13 -18 -15 -18 -39 -3 -27 19 -40
63 -26 90 12 23 32 23 51 1z m-1145 -112 c-8 -73 -33 -138 -58 -152 -43 -23
-53 19 -13 56 20 19 25 30 20 49 -8 32 21 106 42 106 12 0 14 -10 9 -59z m81
12 c4 -39 -22 -63 -37 -34 -8 14 -8 27 1 46 15 33 32 27 36 -12z m392 -20 c0
-4 -15 -22 -32 -41 l-33 -35 28 7 c34 8 47 -16 23 -43 -9 -10 -16 -32 -16 -49
0 -21 -8 -37 -26 -51 -49 -39 -64 -25 -64 62 0 77 16 124 48 142 28 15 72 20
72 8z m609 -22 c6 -10 13 -37 17 -61 7 -41 7 -42 -22 -38 -25 3 -29 8 -32 37
-7 67 15 103 37 62z m101 9 c21 -11 42 -73 33 -96 -7 -20 -47 -18 -65 4 -22
25 -31 71 -17 88 14 17 24 17 49 4z m-1126 -78 c8 -13 -23 -52 -40 -52 -17 0
-19 31 -2 48 14 14 35 16 42 4z m1202 -123 c14 -43 8 -59 -22 -59 -33 0 -64
34 -64 70 0 63 64 55 86 -11z m-137 37 c19 -22 10 -90 -12 -94 -24 -5 -52 60
-37 88 13 23 33 26 49 6z m-1171 -25 c8 -55 -55 -92 -82 -48 -9 15 -5 23 22
48 37 34 55 34 60 0z m72 -17 c0 -24 -19 -54 -35 -54 -19 0 -19 20 1 48 18 26
34 29 34 6z m-5375 -54 c273 -17 705 -72 705 -90 0 -23 -259 -399 -337 -487
l-28 -33 -660 180 c-363 99 -808 219 -990 266 -181 48 -336 90 -344 94 -19 10
-4 14 154 39 130 20 314 38 455 45 138 7 873 -3 1045 -14z m5790 -23 c4 -13
-1 -43 -9 -68 -15 -41 -14 -45 2 -57 16 -12 15 -14 -8 -32 -50 -38 -70 -46
-80 -30 -13 21 -12 134 1 164 21 45 85 61 94 23z m-529 -34 c9 -34 -6 -57 -41
-61 -40 -5 -49 9 -35 52 10 30 16 36 41 36 23 0 30 -5 35 -27z m63 -69 c-31
-38 -41 16 -11 69 l17 32 3 -43 c2 -24 -2 -50 -9 -58z m1187 71 c23 -35 31
-105 12 -105 -31 0 -86 86 -74 117 9 21 44 15 62 -12z m145 -30 c25 -57 22
-79 -13 -83 -53 -6 -97 71 -63 108 30 33 54 25 76 -25z m-5859 -42 c-6 -10
-34 -40 -63 -68 -45 -44 -50 -46 -33 -18 23 41 93 118 100 110 3 -3 1 -14 -4
-24z m118 -10 c0 -9 -35 -50 -77 -91 -43 -42 -62 -64 -43 -49 92 70 184 127
206 127 32 0 30 -12 -8 -57 -61 -72 -63 -78 -12 -32 28 26 65 54 82 63 31 16
62 21 62 11 0 -15 -35 -71 -68 -108 -36 -40 -35 -40 28 12 91 76 97 77 177 56
38 -10 73 -21 80 -24 8 -4 -7 -31 -43 -79 -30 -39 -52 -72 -48 -72 3 0 35 27
71 60 35 33 68 60 73 60 19 0 10 -20 -25 -59 -19 -21 -35 -41 -35 -45 0 -13
36 -5 65 14 32 21 75 27 75 10 0 -6 -7 -22 -16 -35 -25 -38 -12 -48 28 -20 20
14 42 25 47 25 16 0 13 -32 -5 -58 -17 -25 -8 -28 20 -7 33 25 49 19 43 -15
-7 -34 -5 -36 27 -15 21 14 25 14 47 -5 36 -30 11 -40 -106 -40 -374 -2 -828
-30 -1039 -66 -49 -8 -90 -13 -92 -12 -6 7 155 217 215 281 104 110 237 207
263 191 5 -3 8 -12 8 -21z m4308 -57 c5 -24 -6 -66 -18 -66 -12 0 -24 65 -15
80 9 15 29 7 33 -14z m3729 9 c3 -9 -9 -44 -26 -78 -79 -157 -430 -521 -467
-484 -13 12 14 49 117 162 55 61 156 179 225 263 69 83 130 152 135 152 5 0
12 -7 16 -15z m-3645 -40 c-7 -84 -54 -126 -60 -53 -4 46 23 101 46 96 13 -3
16 -13 14 -43z m1253 -5 c8 -16 15 -41 15 -55 0 -23 -3 -25 -27 -19 -39 9 -43
13 -54 41 -21 57 38 87 66 33z m145 10 c6 -11 12 -37 13 -57 2 -32 -1 -38 -20
-41 -23 -3 -103 60 -103 82 0 39 91 52 110 16z m-7915 -67 c134 -33 1029 -275
1180 -319 215 -63 249 -95 226 -208 -16 -78 -77 -279 -101 -334 l-19 -43 -39
20 c-136 70 -1285 817 -1377 896 l-30 25 30 -6 c17 -3 75 -17 130 -31z m6979
25 c-4 -7 -14 -21 -22 -30 -13 -16 -12 -18 9 -26 l23 -9 -22 -14 c-27 -17 -28
-29 -2 -29 52 0 -12 -69 -67 -73 -34 -2 -40 18 -24 89 16 69 44 104 82 104 21
0 28 -4 23 -12z m3225 -70 c26 -125 26 -132 -10 -185 -70 -102 -220 -243 -261
-243 -31 0 -20 25 53 116 122 152 210 284 190 284 -5 0 -45 -49 -89 -108 -82
-112 -220 -265 -254 -283 -66 -35 -9 51 167 256 80 94 154 182 163 198 9 15
19 27 22 27 4 0 12 -28 19 -62z m-2425 -55 c-1 -35 3 -43 20 -45 26 -4 28 -21
3 -26 -24 -5 -77 45 -77 73 0 26 19 47 40 42 11 -2 15 -15 14 -44z m151 33
c19 -14 19 -14 0 -36 -30 -34 -54 -43 -71 -29 -19 15 -18 44 2 63 19 20 44 20
69 2z m-1455 -15 c0 -11 -4 -23 -10 -26 -6 -4 -10 5 -10 19 0 14 5 26 10 26 6
0 10 -9 10 -19z m1650 -82 c13 -46 6 -74 -23 -106 -27 -30 -33 -29 -46 8 -17
50 -13 85 15 118 31 37 40 33 54 -20z m-135 21 c7 -12 -30 -50 -50 -50 -20 0
-19 19 2 42 18 20 38 23 48 8z m-285 -43 c0 -35 -27 -86 -68 -129 -44 -47 -49
-34 -21 59 13 41 67 115 79 108 6 -3 10 -21 10 -38z m-759 -39 c7 -13 10 -48
6 -92 -4 -57 -9 -73 -27 -88 -48 -39 -80 -13 -80 66 0 53 12 88 40 116 26 26
46 25 61 -2z m884 12 c3 -5 -1 -23 -10 -39 -20 -40 -20 -41 15 -34 28 5 30 4
30 -25 0 -65 -58 -40 -96 41 -12 28 -21 54 -18 59 7 11 72 10 79 -2z m115 -38
c-1 -18 -19 -34 -36 -30 -22 4 -31 37 -13 49 13 8 49 -6 49 -19z m78 -29 c9
-41 9 -50 -5 -60 -21 -16 -48 -16 -74 -2 -20 10 -20 12 -3 37 21 34 55 72 64
72 4 0 12 -21 18 -47z m152 -30 c0 -37 -48 -113 -71 -113 -13 0 -18 45 -9 85
16 72 80 95 80 28z m-5216 31 c21 -8 20 -32 -4 -150 -27 -131 -50 -201 -72
-220 -16 -15 -25 -15 -115 6 -54 12 -201 51 -328 85 -126 35 -318 86 -425 115
-238 63 -260 69 -260 80 0 28 316 71 605 83 145 6 584 7 599 1z m351 -19 c314
-34 525 -80 525 -116 0 -18 -52 -29 -258 -53 -241 -28 -238 -29 -340 62 -35
31 -83 74 -106 94 l-41 36 40 -4 c22 -2 103 -11 180 -19z m6925 10 c0 -52
-127 -205 -169 -205 -34 0 -25 22 44 106 90 108 125 136 125 99z m-2502 -32
c2 -12 -14 -51 -37 -89 -23 -37 -38 -70 -35 -73 3 -3 23 14 44 38 26 30 43 42
54 38 9 -4 16 -11 16 -17 0 -22 -43 -100 -78 -141 l-37 -44 44 38 c25 20 51
37 58 37 18 0 32 -40 23 -64 -8 -22 -59 -44 -106 -45 -31 -1 -31 0 -38 60 -13
132 1 227 40 270 22 25 48 21 52 -8z m-4508 -173 c6 -10 10 -21 10 -24 0 -9
-67 -34 -172 -65 -88 -26 -98 -27 -98 -12 0 14 39 165 66 254 4 14 22 3 95
-59 49 -41 94 -84 99 -94z m4650 81 c51 -49 51 -75 -1 -79 -44 -4 -57 10 -65
72 -9 59 9 61 66 7z m104 2 l-2 -32 28 21 c34 24 57 19 66 -17 10 -39 -1 -55
-39 -55 -41 0 -84 41 -93 89 -6 30 -5 33 17 29 20 -2 24 -8 23 -35z m234 -20
c2 -32 -3 -47 -23 -72 -40 -46 -65 -38 -65 23 0 26 57 99 74 93 6 -2 12 -22
14 -44z m2046 25 c-16 -51 -82 -113 -100 -95 -10 10 26 66 58 91 41 32 51 33
42 4z m-8690 -37 c12 -13 14 -21 6 -26 -11 -7 -50 21 -50 37 0 15 27 8 44 -11z
m2676 -55 c0 -55 -27 -146 -46 -153 -42 -16 -59 71 -29 145 31 73 75 78 75 8z
m-2365 -21 c204 -56 295 -85 295 -94 0 -17 -225 39 -543 135 -9 3 -15 9 -12
14 6 9 90 -8 260 -55z m2572 54 c37 -14 43 -25 43 -89 0 -70 -26 -126 -84
-185 -54 -53 -89 -59 -127 -19 -20 21 -24 35 -23 82 1 77 28 163 60 195 29 30
80 36 131 16z m2503 -1 c0 -7 -7 -47 -15 -88 -12 -56 -22 -81 -41 -97 -34 -31
-70 -30 -78 2 -8 32 3 104 20 130 30 44 114 83 114 53z m-4965 -18 c4 -6 -5
-10 -19 -10 -14 0 -26 5 -26 10 0 6 9 10 19 10 11 0 23 -4 26 -10z m1865 -104
c-38 -131 -48 -154 -71 -161 -50 -16 -52 48 -6 148 29 63 91 136 104 123 2 -2
-10 -52 -27 -110z m269 100 c18 -21 -21 -41 -50 -26 -16 9 -18 14 -8 26 6 8
19 14 29 14 10 0 23 -6 29 -14z m839 -195 c-1 -115 -6 -212 -10 -216 -8 -9
-210 12 -255 26 -46 15 -52 43 -37 188 15 137 27 186 52 201 9 5 70 10 135 10
l119 0 -4 -209z m143 173 c26 -23 39 -95 46 -242 7 -157 5 -162 -84 -162 l-53
0 0 203 c0 149 3 206 12 215 15 15 55 7 79 -14z m2469 -2 c0 -32 -32 -96 -67
-134 -55 -58 -127 -61 -89 -3 28 43 136 165 146 165 6 0 10 -12 10 -28z m2700
-4 c0 -30 -1 -31 -16 -16 -9 9 -14 24 -11 32 11 27 27 17 27 -16z m-6516 13
c9 -14 -53 -183 -77 -208 -11 -13 -30 -23 -42 -23 -47 0 -234 152 -223 182 7
16 90 33 228 48 109 11 108 11 114 1z m1474 -8 c-10 -2 -26 -2 -35 0 -10 3 -2
5 17 5 19 0 27 -2 18 -5z m-3073 -23 c4 -6 -5 -10 -19 -10 -14 0 -26 5 -26 10
0 6 9 10 19 10 11 0 23 -4 26 -10z m3303 -2 c7 -7 12 -21 12 -33 0 -32 -20
-45 -66 -45 -42 0 -54 10 -54 49 0 27 21 41 60 41 20 0 41 -5 48 -12z m2792
-13 c0 -19 -39 -45 -68 -45 -31 0 -24 19 17 47 34 23 51 22 51 -2z m1687 15
c224 -14 314 -41 404 -125 l46 -43 -37 -6 c-63 -10 -397 -25 -790 -36 -206 -5
-550 -15 -764 -21 l-390 -11 -23 26 c-12 14 -27 43 -33 64 -19 69 -2 74 340
92 107 6 312 20 455 31 143 11 341 24 440 28 99 4 185 8 190 9 6 1 78 -3 162
-8z m-1836 -16 c11 -14 10 -19 -10 -35 -47 -39 -104 -11 -66 31 22 24 58 26
76 4z m-6471 -10 c114 -26 463 -135 525 -163 70 -32 79 -42 94 -96 6 -22 29
-67 51 -100 22 -33 40 -66 40 -72 0 -16 -4 -16 -161 -3 -68 5 -268 16 -444 25
-375 18 -399 20 -390 43 4 10 25 69 47 132 75 217 75 216 113 238 27 15 48 15
125 -4z m3957 8 c7 -4 19 -24 27 -43 18 -43 86 -310 86 -337 0 -41 -87 -35
-109 7 -16 29 -71 274 -71 314 0 51 34 80 67 59z m-3339 -9 c-10 -2 -26 -2
-35 0 -10 3 -2 5 17 5 19 0 27 -2 18 -5z m1728 -18 c9 -35 -1 -53 -31 -61 -34
-8 -55 1 -55 26 0 38 19 60 50 60 23 0 31 -5 36 -25z m1314 15 c12 0 20 -28
14 -45 -9 -23 -76 -40 -103 -26 -11 7 -21 18 -21 25 0 27 56 59 88 50 8 -2 17
-4 22 -4z m2625 -4 c28 -21 12 -46 -30 -46 -28 0 -35 4 -35 20 0 10 8 24 18
29 22 14 25 13 47 -3z m-5520 -25 c29 -14 34 -20 19 -20 -24 -1 -84 18 -98 30
-18 16 38 9 79 -10z m960 -11 c28 -16 68 -45 90 -64 l40 -35 -205 -1 c-216 0
-310 7 -310 22 0 22 235 106 300 107 22 1 54 -10 85 -29z m2460 9 c47 -12 85
-24 85 -28 0 -9 -82 -222 -109 -283 -11 -27 -24 -48 -30 -48 -16 0 -98 338
-87 365 7 20 42 19 141 -6z m-1751 -22 c12 -19 3 -32 -19 -24 -17 7 -21 51 -3
45 6 -2 16 -12 22 -21z m3528 -29 c-5 -22 -32 -24 -32 -2 0 8 5 25 12 37 11
21 11 21 18 2 4 -11 5 -28 2 -37z m-5311 11 c19 -7 39 -16 44 -22 14 -14 -63
1 -95 18 -23 13 -23 14 -4 15 12 0 36 -5 55 -11z m369 -26 c134 -32 287 -81
295 -94 8 -11 -6 -9 -145 28 -130 33 -320 92 -320 99 0 7 29 1 170 -33z m5629
8 c30 -32 67 -118 56 -129 -4 -4 -27 -7 -52 -6 -58 1 -83 26 -90 88 -9 78 35
101 86 47z m-2253 -2 c24 -6 44 -16 44 -23 0 -27 -83 -257 -101 -280 -17 -21
-29 -26 -68 -26 -79 0 -88 30 -45 152 47 130 82 186 117 188 5 0 28 -5 53 -11z
m2034 1 c12 -8 9 -10 -12 -10 -16 0 -28 5 -28 10 0 13 20 13 40 0z m-4132 -16
c49 -14 8 -67 -68 -89 -25 -8 -25 -7 -6 13 11 13 16 30 13 42 -3 12 1 24 11
30 20 11 21 11 50 4z m1560 -21 c18 -47 32 -107 32 -140 0 -38 -27 -61 -83
-70 -32 -5 -37 -3 -42 20 -11 43 -2 61 33 68 64 13 66 48 3 49 -27 0 -61 26
-61 47 0 25 39 53 74 53 27 0 36 -5 44 -27z m-3064 7 c-7 -7 -19 -7 -35 -1
-23 9 -22 10 11 10 23 1 31 -2 24 -9z m1646 -8 c0 -25 -19 -42 -47 -42 -28 0
-40 24 -23 45 18 22 70 20 70 -3z m1248 -16 c4 -36 -15 -84 -40 -97 -38 -21
-86 35 -76 87 4 24 46 45 83 42 25 -3 31 -8 33 -32z m2498 -1 c24 -59 20 -72
-28 -78 -65 -9 -127 3 -139 25 -22 41 38 84 124 87 23 1 31 -5 43 -34z m-5291
5 c4 -6 -7 -10 -25 -10 -18 0 -29 4 -25 10 3 6 15 10 25 10 10 0 22 -4 25 -10z
m1643 -69 c-2 -29 -8 -37 -25 -39 -39 -6 -58 72 -26 103 16 16 18 16 35 -6 13
-15 18 -35 16 -58z m2030 40 c4 -42 -6 -53 -53 -54 -26 -1 -42 5 -51 17 -25
35 19 78 76 73 21 -2 26 -8 28 -36z m736 20 c3 -5 -5 -16 -18 -25 -14 -8 -26
-26 -28 -38 -4 -31 -62 -48 -85 -26 -24 24 -7 57 40 79 45 20 83 24 91 10z
m672 -26 c29 -44 12 -63 -64 -71 -78 -8 -425 1 -443 11 -23 15 18 24 174 41
85 8 177 22 204 29 77 21 110 19 129 -10z m556 8 c31 -28 23 -50 -19 -55 -78
-9 -133 21 -104 56 18 22 99 21 123 -1z m-5549 0 c-7 -2 -21 -2 -30 0 -10 3
-4 5 12 5 17 0 24 -2 18 -5z m3700 -10 c11 -7 8 -48 -5 -61 -7 -7 -21 -12 -33
-12 -12 0 -26 5 -33 12 -13 13 -16 60 -5 72 7 6 59 -1 76 -11z m1648 7 c10 -6
19 -20 19 -30 0 -17 -7 -20 -44 -20 -51 0 -76 20 -56 45 14 17 53 20 81 5z
m-4691 -27 c0 -23 -34 -75 -43 -66 -10 10 -8 42 3 64 13 24 40 25 40 2z m-104
-59 c-4 -13 -11 -24 -16 -24 -14 0 -13 33 2 67 11 28 12 28 16 4 2 -12 1 -34
-2 -47z m867 54 c21 -11 21 -11 2 -18 -22 -8 -55 5 -55 20 0 13 27 13 53 -2z
m547 -32 c0 -47 -17 -70 -44 -60 -22 9 -20 46 5 78 29 37 39 33 39 -18z
m-1160 26 c0 -9 -36 -44 -57 -56 -20 -11 -15 8 8 38 19 25 49 36 49 18z m6845
-2 c20 -5 1 -8 -60 -8 -64 1 -80 3 -55 8 45 9 78 9 115 0z m-7827 -185 c71
-73 169 -132 231 -140 66 -9 83 -15 78 -28 -9 -28 -34 -29 -102 -2 -148 59
-274 164 -320 268 -38 86 -30 101 15 27 22 -36 66 -92 98 -125z m3992 160 c16
-19 3 -150 -17 -170 -20 -20 -82 -20 -90 0 -8 21 15 135 33 163 17 25 55 29
74 7z m-3814 -44 c147 -41 214 -70 214 -91 0 -6 -15 -20 -32 -31 -27 -16 -45
-20 -98 -16 -36 2 -86 13 -111 24 -54 24 -124 84 -145 124 -18 36 -18 42 4 37
9 -3 85 -24 168 -47z m1662 37 c32 -32 -7 -38 -53 -8 l-30 20 36 0 c19 0 40
-5 47 -12z m190 -5 c5 -17 -26 -29 -40 -15 -6 6 -7 15 -3 22 9 14 37 9 43 -7z
m5022 7 c0 -5 -11 -10 -25 -10 -14 0 -25 5 -25 10 0 6 11 10 25 10 14 0 25 -4
25 -10z m338 3 c-26 -2 -71 -2 -100 0 -29 2 -8 3 47 3 55 0 79 -1 53 -3z
m-998 -23 c11 -7 -1 -10 -40 -10 -39 0 -51 3 -40 10 8 5 26 10 40 10 14 0 32
-5 40 -10z m170 0 c11 -7 1 -10 -35 -10 -36 0 -46 3 -35 10 8 5 24 10 35 10
11 0 27 -5 35 -10z m-2865 -12 c31 -14 32 -42 3 -62 -29 -21 -62 -20 -83 0
-21 22 -15 46 15 61 31 16 33 16 65 1z m-789 -24 c4 -14 2 -36 -5 -50 -9 -21
-17 -24 -65 -24 -60 0 -82 16 -72 53 7 30 39 45 93 46 38 1 43 -2 49 -25z
m1211 9 c60 -28 153 -93 153 -107 0 -8 -10 -16 -22 -20 -34 -9 -238 -7 -238 2
0 12 30 124 36 133 8 13 29 11 71 -8z m-3118 -15 c-30 -56 -181 -183 -276
-232 -106 -54 -111 -35 -5 23 91 52 169 110 237 180 27 28 51 51 52 51 2 0 -2
-10 -8 -22z m4134 15 c-13 -2 -35 -2 -50 0 -16 2 -5 4 22 4 28 0 40 -2 28 -4z
m205 0 c-16 -2 -40 -2 -55 0 -16 2 -3 4 27 4 30 0 43 -2 28 -4z m195 0 c-13
-2 -35 -2 -50 0 -16 2 -5 4 22 4 28 0 40 -2 28 -4z m155 0 c-10 -2 -26 -2 -35
0 -10 3 -2 5 17 5 19 0 27 -2 18 -5z m-4143 -43 c342 -48 718 -98 848 -111
138 -14 145 -19 129 -87 -20 -86 -40 -122 -67 -122 -163 0 -1515 171 -1515
192 0 14 122 149 144 159 35 15 228 3 461 -31z m2291 26 c27 -20 8 -48 -40
-60 -47 -12 -60 -1 -45 42 9 25 17 32 38 32 15 0 36 -6 47 -14z m852 -3 c-43
-2 -113 -2 -155 0 -43 1 -8 3 77 3 85 0 120 -2 78 -3z m-2690 -30 c-10 -2 -26
-2 -35 0 -10 3 -2 5 17 5 19 0 27 -2 18 -5z m3942 -21 c14 -11 26 -29 28 -41
3 -19 -1 -21 -43 -21 -25 0 -55 4 -65 10 -19 10 -35 55 -24 72 9 15 73 2 104
-20z m-169 8 c44 -24 11 -70 -50 -70 -36 0 -78 18 -85 36 -13 34 88 59 135 34z
m-367 -11 c29 -14 41 -38 26 -53 -6 -6 -44 -12 -85 -14 -74 -4 -75 -4 -85 24
-9 24 -8 31 6 41 22 16 104 17 138 2z m170 5 c9 -3 16 -16 16 -29 0 -25 -17
-35 -60 -35 -24 0 -60 21 -60 35 0 2 7 11 16 19 16 16 59 21 88 10z m-2474
-18 c0 -18 -27 -28 -53 -20 -20 6 -20 7 -2 20 24 18 55 18 55 0z m2098 -20 c2
-16 -2 -32 -10 -37 -33 -21 -580 -3 -643 21 -28 11 -29 12 -11 22 24 14 262
25 486 24 l175 -1 3 -29z m-1508 14 c25 -17 -17 -41 -64 -38 -48 4 -57 22 -19
36 37 14 64 14 83 2z m-1035 -30 c-8 -13 -45 -13 -65 0 -11 7 -3 10 28 10 26
0 41 -4 37 -10z m265 -26 c0 -2 -17 -4 -37 -3 -29 0 -33 2 -18 8 18 7 55 4 55
-5z m3613 -24 c-14 -6 -32 -6 -45 0 -19 7 -15 9 22 9 37 0 41 -2 23 -9z m212
0 c-3 -5 -15 -10 -25 -10 -10 0 -22 5 -25 10 -4 6 7 10 25 10 18 0 29 -4 25
-10z m-4030 -20 c41 -16 19 -32 -39 -28 l-51 3 0 -60 c0 -59 1 -60 35 -78 l35
-18 -60 3 -60 3 -3 78 c-2 50 1 84 9 93 13 16 95 19 134 4z m1195 0 c11 -7 4
-10 -25 -10 -29 0 -36 3 -25 10 8 5 20 10 25 10 6 0 17 -5 25 -10z m1690 0
c11 -7 5 -10 -23 -10 -23 0 -36 4 -32 10 8 13 35 13 55 0z m180 0 c11 -7 -1
-10 -40 -10 -39 0 -51 3 -40 10 8 5 26 10 40 10 14 0 32 -5 40 -10z m-2878
-11 c45 -12 52 -32 46 -120 -5 -72 -16 -82 -78 -74 -66 9 -75 22 -59 83 11 44
10 53 -4 76 -9 14 -17 30 -17 36 0 13 64 13 112 -1z m221 -31 c15 -18 17 -32
12 -72 -9 -69 -28 -96 -66 -96 -54 0 -66 13 -75 87 -12 96 -12 96 16 104 39
12 93 0 113 -23z m4207 28 c0 -3 -9 -20 -20 -39 -39 -66 -138 -98 -175 -57
-28 30 -51 24 -99 -25 -47 -48 -64 -52 -176 -46 -55 3 -62 10 -69 63 l-6 43
-52 3 c-29 2 -62 -2 -74 -9 -19 -10 -21 -17 -16 -70 l5 -59 -136 0 c-76 0
-186 -5 -245 -11 -129 -14 -129 -14 -176 96 l-30 70 82 8 c159 15 1187 43
1187 33z m-7005 -16 c-3 -5 -12 -10 -20 -10 -8 0 -17 5 -20 10 -4 6 5 10 20
10 15 0 24 -4 20 -10z m2954 -14 c12 -13 19 -44 33 -161 3 -17 -4 -20 -44 -23
-56 -4 -62 4 -80 105 -15 91 -9 107 39 100 20 -4 43 -13 52 -21z m496 -6 c411
-11 753 -26 815 -36 44 -7 55 -24 16 -24 -43 0 -56 -10 -56 -44 0 -40 9 -52
43 -65 65 -25 157 -7 157 30 0 16 22 10 57 -17 26 -20 32 -29 23 -38 -13 -13
-1015 -11 -1065 2 -29 8 -30 11 -35 78 l-5 69 -63 3 c-76 4 -92 -7 -92 -60 0
-68 -11 -78 -88 -78 -37 0 -72 4 -79 8 -15 9 -29 46 -47 122 l-13 60 31 0 c17
0 198 -5 401 -10z m-2760 -10 c150 -13 456 -48 920 -105 961 -118 1166 -127
2820 -129 1030 -1 1156 1 1573 22 631 31 850 29 740 -7 -62 -20 -598 -60
-1073 -81 -753 -32 -2391 -39 -2725 -11 -74 6 -220 18 -325 27 -623 50 -1650
166 -1987 223 -122 21 -168 35 -168 50 0 22 61 25 225 11z m4985 0 c22 -12 40
-68 40 -127 l0 -43 -43 0 c-59 0 -77 22 -84 100 -5 47 -3 64 8 71 19 12 56 11
79 -1z m-780 -82 c0 -46 -5 -90 -10 -98 -13 -21 -140 -19 -210 5 -99 32 -290
136 -290 157 0 11 67 14 298 16 l212 2 0 -82z m243 63 c14 -14 -1 -31 -29 -31
-29 0 -64 -32 -64 -59 0 -25 37 -71 58 -72 10 0 7 -4 -8 -8 -44 -13 -99 -1
-121 27 -16 21 -19 38 -17 86 3 54 5 61 28 68 31 9 141 1 153 -11z m151 9 c25
-9 26 -13 26 -88 0 -83 -9 -102 -46 -102 -30 0 -38 16 -35 65 2 30 -5 50 -24
78 -14 21 -23 43 -20 48 8 12 67 12 99 -1z m-6886 -7 c-10 -2 -28 -2 -40 0
-13 2 -5 4 17 4 22 1 32 -1 23 -4z m7102 -13 c14 -14 20 -33 20 -68 0 -64 -15
-82 -70 -85 l-45 -2 -27 75 c-15 41 -27 81 -27 88 -1 8 18 12 64 12 52 0 69
-4 85 -20z m-5272 -11 c-26 -15 -218 -25 -218 -11 0 15 30 19 140 20 68 1 90
-1 78 -9z m152 -85 c219 -50 868 -154 1240 -199 124 -15 468 -45 730 -65 967
-72 2161 -80 3445 -25 400 18 552 19 515 4 -65 -26 -337 -68 -600 -94 -374
-35 -1353 -52 -2115 -36 -617 13 -846 24 -1115 51 -107 11 -251 24 -320 30
-347 29 -1188 146 -1430 199 -315 69 -568 135 -585 153 -13 14 148 1 235 -18z
m-1927 -11 c-13 -2 -35 -2 -50 0 -16 2 -5 4 22 4 28 0 40 -2 28 -4z m2032
-123 c4 -6 -5 -10 -19 -10 -14 0 -26 5 -26 10 0 6 9 10 19 10 11 0 23 -4 26
-10z m262 -55 c98 -19 282 -51 408 -70 127 -20 239 -38 249 -42 88 -26 -328
-83 -612 -83 -89 0 -114 4 -145 20 -21 12 -82 32 -135 47 -165 43 -158 56 13
27 51 -8 106 -14 121 -12 l29 3 -40 23 -40 23 76 -6 c132 -11 111 23 -43 70
-84 25 -105 35 -74 35 8 0 95 -16 193 -35z m5673 -65 c11 -7 7 -10 -18 -10
-20 0 -31 4 -27 10 8 13 26 13 45 0z m215 -20 c-19 -21 -45 -27 -45 -10 0 11
30 29 49 30 11 0 10 -5 -4 -20z m-6175 -80 c0 -5 -11 -10 -25 -10 -14 0 -25 5
-25 10 0 6 11 10 25 10 14 0 25 -4 25 -10z m1431 -14 c123 -14 294 -30 379
-36 293 -22 325 -25 323 -35 -2 -15 -160 -53 -274 -65 -127 -14 -227 -5 -287
27 -24 13 -75 31 -111 39 -90 21 -291 94 -257 94 2 0 104 -11 227 -24z m4614
14 c-3 -5 -24 -10 -46 -10 -21 0 -39 5 -39 10 0 6 21 10 46 10 27 0 43 -4 39
-10z m-215 -26 c0 -2 -19 -4 -42 -3 -31 0 -37 3 -24 8 18 7 66 3 66 -5z
m-5712 -1 c-10 -2 -28 -2 -40 0 -13 2 -5 4 17 4 22 1 32 -1 23 -4z m5802 -52
c-17 -10 -254 -31 -344 -31 -112 1 -36 18 119 28 209 13 243 13 225 3z m-3080
-26 c129 -3 263 -8 298 -11 61 -5 80 -17 45 -27 -205 -58 -381 -91 -442 -82
-57 8 -171 46 -257 85 -89 40 -78 55 35 46 47 -3 192 -8 321 -11z m2540 -6
c-130 -47 -220 -62 -370 -63 -113 0 -159 4 -207 18 -35 10 -63 22 -63 26 0 14
329 37 545 38 l150 1 -55 -20z m-1062 -5 c12 -4 22 -10 22 -14 0 -13 -114 -40
-166 -40 -59 0 -147 36 -124 50 16 11 232 13 268 4z m-568 -23 c0 -18 -94 -29
-104 -12 -4 5 0 12 6 14 22 9 98 7 98 -2z m2108 -8 c-27 -2 -69 -2 -95 0 -27
2 -5 3 47 3 52 0 74 -1 48 -3z"/>
<path d="M8041 7772 c-121 -124 -341 -393 -341 -416 0 -15 22 8 106 112 48 59
138 162 198 230 61 68 115 130 119 138 18 32 -10 10 -82 -64z"/>
<path d="M8194 7751 c-82 -65 -353 -392 -354 -426 0 -12 12 1 154 167 65 76
151 174 193 218 81 87 84 103 7 41z"/>
<path d="M8195 7578 c-142 -146 -285 -311 -285 -330 0 -4 80 77 178 180 238
250 293 312 274 312 -5 0 -80 -73 -167 -162z"/>
<path d="M8308 7528 c-137 -147 -232 -258 -226 -264 5 -4 160 160 277 294 101
115 65 94 -51 -30z"/>
<path d="M6039 7011 c-13 -11 -19 -20 -13 -21 15 0 50 27 43 34 -3 4 -17 -2
-30 -13z"/>
<path d="M5493 6926 c-92 -78 -203 -186 -190 -186 4 0 53 42 108 93 56 50 120
109 143 129 74 67 29 40 -61 -36z"/>
<path d="M5859 6899 c-107 -73 -276 -205 -300 -236 -12 -16 -11 -16 16 1 80
50 409 305 394 306 -3 0 -52 -32 -110 -71z"/>
<path d="M6067 6918 c-26 -18 -47 -37 -47 -41 0 -11 76 32 97 55 25 28 2 21
-50 -14z"/>
<path d="M5935 6823 c-64 -42 -215 -166 -210 -171 3 -3 46 27 97 66 149 114
208 169 113 105z"/>
<path d="M5450 6725 c-52 -52 -92 -97 -89 -99 3 -3 50 40 104 94 55 55 95 100
90 100 -6 0 -53 -43 -105 -95z"/>
<path d="M7964 6037 c-247 -255 -512 -609 -633 -846 -96 -188 -77 -191 29 -4
195 343 354 559 627 851 57 61 100 112 95 112 -5 0 -58 -51 -118 -113z"/>
<path d="M8093 5893 c-186 -164 -570 -635 -683 -835 -59 -105 -25 -83 40 26
108 180 250 358 519 646 194 207 195 209 190 214 -2 2 -32 -21 -66 -51z"/>
<path d="M8478 5818 c-307 -264 -813 -805 -851 -910 -14 -38 12 -15 65 60 117
163 413 479 728 775 85 81 152 147 149 147 -3 0 -44 -33 -91 -72z"/>
<path d="M8043 5593 c-250 -261 -341 -359 -355 -388 -13 -26 -14 -27 277 285
131 140 254 272 274 293 19 20 32 37 29 37 -3 0 -104 -102 -225 -227z"/>
<path d="M8548 5703 c-46 -38 -66 -63 -48 -63 13 0 79 59 91 81 13 26 11 25
-43 -18z"/>
<path d="M8630 5624 c-207 -177 -639 -649 -615 -672 3 -3 9 -1 13 4 5 5 44 52
87 104 44 52 185 203 315 335 296 301 328 339 200 229z"/>
<path d="M8279 5443 c-188 -191 -337 -349 -401 -425 -40 -49 -41 -51 -11 -30
40 28 433 436 572 595 14 15 20 27 15 27 -5 0 -84 -75 -175 -167z"/>
<path d="M8693 5481 c-195 -182 -550 -541 -535 -541 13 0 693 669 680 670 -3
0 -68 -58 -145 -129z"/>
<path d="M8674 5302 c-180 -171 -404 -405 -304 -317 159 139 536 515 517 515
-2 0 -99 -89 -213 -198z"/>
<path d="M8993 5131 c-80 -67 -198 -189 -191 -196 3 -4 64 50 135 119 133 130
156 161 56 77z"/>
<path d="M7583 5067 c-12 -12 -33 -47 -47 -77 l-27 -55 26 30 c32 37 79 114
73 120 -3 3 -14 -5 -25 -18z"/>
<path d="M5543 6191 c-37 -27 -53 -56 -110 -201 -3 -8 24 14 61 50 36 35 66
68 66 72 0 5 -12 5 -27 2 -26 -6 -25 -3 20 43 67 69 62 86 -10 34z"/>
<path d="M5410 5900 c-49 -48 -61 -70 -40 -70 6 0 33 22 60 50 28 27 50 54 50
60 0 21 -22 9 -70 -40z"/>
<path d="M5394 5792 c-61 -49 -109 -100 -102 -107 6 -6 109 77 142 114 33 37
10 33 -40 -7z"/>
<path d="M5358 5629 c-60 -52 -106 -109 -90 -109 13 0 162 139 162 151 0 17
-15 8 -72 -42z"/>
<path d="M5300 5443 c-75 -76 -78 -80 -25 -36 74 63 132 123 119 123 -5 0 -48
-39 -94 -87z"/>
<path d="M5340 5399 c-43 -26 -190 -172 -190 -188 0 -17 28 4 143 106 89 80
110 103 90 103 -5 0 -24 -10 -43 -21z"/>
<path d="M5253 5201 c-99 -88 -143 -138 -143 -161 0 -15 41 21 159 143 52 53
92 99 89 102 -2 3 -50 -35 -105 -84z"/>
<path d="M5522 5178 c-126 -118 -257 -257 -227 -241 32 18 351 330 344 337 -4
4 -56 -39 -117 -96z"/>
<path d="M5825 5154 c-160 -130 -278 -235 -271 -242 7 -7 88 56 227 177 170
147 195 170 184 170 -5 0 -68 -47 -140 -105z"/>
<path d="M5374 5178 c-119 -111 -196 -198 -175 -198 13 0 215 193 242 232 34
47 3 31 -67 -34z"/>
<path d="M6509 4929 c-75 -60 -169 -150 -169 -162 0 -17 65 31 153 114 51 48
89 89 86 93 -3 3 -34 -17 -70 -45z"/>
<path d="M3746 3315 c-95 -107 -176 -212 -176 -228 0 -17 54 39 149 153 103
124 136 170 122 170 -6 0 -48 -43 -95 -95z"/>
<path d="M3055 3889 c-65 -33 -87 -49 -66 -49 19 0 131 61 131 71 0 12 3 13
-65 -22z"/>
<path d="M2767 3711 c-345 -228 -740 -518 -1165 -856 -184 -147 -216 -175
-194 -175 4 0 140 107 302 237 334 268 450 355 770 573 440 300 482 330 463
330 -5 0 -85 -49 -176 -109z"/>
<path d="M3053 3559 c-37 -18 -57 -39 -38 -39 13 0 62 30 74 44 17 21 14 20
-36 -5z"/>
<path d="M3130 3454 c-147 -89 -341 -215 -460 -298 -234 -164 -720 -532 -736
-557 -11 -18 7 -6 176 121 331 249 590 431 894 629 208 135 274 181 260 181
-5 0 -65 -35 -134 -76z"/>
<path d="M3250 3353 c-25 -9 -72 -45 -66 -50 6 -7 86 38 86 49 0 4 -1 8 -2 7
-2 0 -10 -3 -18 -6z"/>
<path d="M3045 3232 c-286 -166 -974 -638 -1040 -713 -37 -42 7 -14 275 176
319 227 584 406 742 504 99 61 141 91 126 91 -2 0 -48 -26 -103 -58z"/>
<path d="M3299 3250 c-18 -14 -20 -19 -8 -20 22 0 54 25 42 33 -6 4 -22 -2
-34 -13z"/>
<path d="M3187 3038 c-26 -18 -47 -37 -47 -41 0 -11 76 32 97 55 25 28 2 21
-50 -14z"/>
<path d="M2867 2824 c-243 -164 -520 -364 -513 -371 5 -6 39 17 411 275 315
219 332 232 316 232 -6 0 -103 -61 -214 -136z"/>
<path d="M3104 2821 c-98 -57 -499 -330 -537 -367 -55 -53 -38 -54 27 -1 31
25 171 123 311 217 221 149 265 180 253 180 -2 0 -26 -13 -54 -29z"/>
<path d="M3030 2633 c-113 -73 -300 -207 -295 -211 8 -8 365 230 365 243 0 10
-17 2 -70 -32z"/>
<path d="M1323 2626 c-15 -13 -25 -27 -21 -31 3 -3 21 7 40 24 39 36 22 42
-19 7z"/>
<path d="M2983 2455 c-79 -52 -143 -97 -143 -100 0 -14 28 1 142 76 147 97
175 119 157 119 -8 0 -78 -43 -156 -95z"/>
<path d="M3129 2420 c-18 -14 -20 -19 -8 -20 22 0 54 25 42 33 -6 4 -22 -2
-34 -13z"/>
<path d="M9813 4767 c-51 -78 -507 -838 -557 -929 -21 -38 -35 -68 -32 -68 11
0 148 216 363 575 215 358 280 472 272 480 -3 2 -23 -24 -46 -58z"/>
<path d="M9623 4762 c-17 -26 -77 -119 -134 -207 -194 -304 -524 -767 -569
-798 -13 -9 -18 -20 -14 -31 3 -8 -3 -32 -15 -51 -11 -19 -17 -35 -13 -35 24
2 696 980 762 1109 36 73 28 79 -17 13z"/>
<path d="M9919 4660 c-22 -35 -29 -59 -20 -64 16 -10 43 32 39 60 l-3 28 -16
-24z"/>
<path d="M9859 4527 c-9 -12 -58 -90 -109 -172 -154 -249 -453 -692 -554 -822
-53 -67 -96 -126 -96 -130 0 -4 18 11 41 32 60 59 227 283 371 500 137 207
378 593 378 607 0 15 -15 8 -31 -15z"/>
<path d="M9972 4418 c-36 -53 -82 -133 -82 -141 0 -21 23 -1 47 41 32 54 74
142 68 142 -2 0 -17 -19 -33 -42z"/>
<path d="M10067 4193 c-30 -54 -112 -201 -182 -328 -70 -126 -146 -259 -169
-295 -63 -98 -63 -98 -42 -80 41 33 169 249 361 608 102 192 127 264 32 95z"/>
<path d="M9859 4207 c-8 -12 -58 -92 -111 -177 -53 -85 -164 -253 -247 -374
-176 -255 -172 -248 -137 -216 73 65 416 573 500 738 27 53 24 70 -5 29z"/>
<path d="M10037 3753 c-126 -209 -197 -340 -178 -329 24 15 318 522 309 532
-3 3 -62 -89 -131 -203z"/>
<path d="M10114 2753 c-416 -511 -580 -698 -856 -978 -114 -115 -205 -211
-203 -214 19 -19 486 450 681 684 222 267 488 604 548 698 45 68 -7 11 -170
-190z"/>
<path d="M10569 2503 c-25 -27 -120 -131 -210 -233 -90 -102 -247 -273 -347
-380 -101 -107 -194 -208 -205 -225 l-22 -30 32 23 c70 49 555 573 720 777 95
118 110 149 32 68z"/>
<path d="M8840 2307 c-43 -58 -55 -93 -20 -62 27 25 82 115 70 115 -5 0 -27
-24 -50 -53z"/>
<path d="M5345 4164 c-139 -96 -278 -204 -271 -211 6 -6 87 50 258 179 100 75
139 108 126 108 -2 0 -52 -35 -113 -76z"/>
<path d="M5389 4067 c-132 -99 -250 -198 -328 -275 -88 -85 -60 -69 79 48 63
53 170 140 238 194 67 53 122 99 122 101 0 13 -23 -1 -111 -68z"/>
<path d="M5395 3943 c-119 -80 -444 -371 -498 -447 -34 -48 1 -21 160 125 81
74 203 182 271 238 67 57 122 105 122 107 0 10 -18 2 -55 -23z"/>
<path d="M5314 3713 c-87 -71 -414 -397 -414 -413 0 -7 27 12 59 42 109 98
436 410 439 419 8 21 -18 6 -84 -48z"/>
<path d="M5175 3403 c-124 -124 -380 -405 -396 -435 -11 -21 -11 -21 17 1 47
36 410 430 483 524 32 40 -3 10 -104 -90z"/>
<path d="M5160 3183 c-172 -167 -286 -290 -278 -299 7 -6 330 308 399 387 96
111 41 72 -121 -88z"/>
<path d="M5212 3055 c-135 -142 -414 -483 -467 -570 -28 -46 -7 -23 206 225
107 124 227 263 267 310 41 46 78 92 83 102 21 39 -12 14 -89 -67z"/>
<path d="M5205 2848 c-133 -143 -430 -528 -408 -528 5 0 42 44 83 97 60 78
319 395 388 476 8 9 13 20 10 22 -3 3 -36 -27 -73 -67z"/>
<path d="M5254 2678 c-142 -156 -534 -691 -534 -730 0 -20 29 13 91 105 115
169 182 261 337 460 146 187 192 259 106 165z"/>
<path d="M5439 2618 c-134 -149 -253 -290 -400 -473 -148 -185 -184 -234 -176
-241 3 -3 483 567 621 739 65 80 34 63 -45 -25z"/>
<path d="M5536 2473 c-203 -210 -250 -262 -244 -269 3 -3 77 71 165 163 194
203 248 263 239 263 -4 0 -76 -71 -160 -157z"/>
<path d="M5814 2508 c-133 -117 -628 -602 -607 -596 20 5 755 708 741 708 -3
0 -63 -50 -134 -112z"/>
<path d="M6070 2498 c-151 -114 -746 -645 -736 -656 3 -2 36 22 73 55 37 33
213 186 390 341 283 248 343 302 331 302 -2 0 -28 -19 -58 -42z"/>
<path d="M6190 2379 c-244 -189 -676 -557 -666 -567 3 -2 167 130 366 294 453
375 426 352 420 357 -3 3 -57 -35 -120 -84z"/>
<path d="M6420 2345 c-24 -25 -42 -47 -39 -50 3 -2 25 15 49 40 24 25 42 47
39 50 -3 2 -25 -15 -49 -40z"/>
<path d="M6470 2201 c-234 -182 -557 -453 -518 -434 52 25 651 513 630 513 -6
0 -56 -36 -112 -79z"/>
<path d="M6265 2221 c-462 -368 -603 -484 -565 -465 37 19 270 201 495 388
145 120 152 126 140 126 -6 -1 -37 -22 -70 -49z"/>
<path d="M5159 2062 c-100 -104 -155 -172 -140 -172 10 0 207 216 224 245 16
29 -2 14 -84 -73z"/>
<path d="M6504 2031 c-215 -158 -427 -324 -432 -338 -7 -24 17 -13 75 35 32
26 158 126 280 221 198 153 243 191 230 191 -2 0 -70 -49 -153 -109z"/>
<path d="M6539 1886 c-238 -179 -335 -262 -199 -170 68 46 345 250 406 300 16
12 18 24 6 24 -4 0 -100 -69 -213 -154z"/>
<path d="M6723 1848 c-125 -90 -293 -222 -288 -227 11 -10 395 271 395 290 0
5 -1 9 -3 9 -1 0 -48 -33 -104 -72z"/>
<path d="M6945 1655 c-100 -58 -174 -108 -175 -118 0 -5 30 8 68 28 90 50 210
135 189 135 -1 0 -38 -20 -82 -45z"/>
<path d="M7001 1563 c-36 -21 -66 -44 -69 -50 -4 -14 113 49 138 73 25 25 -3
15 -69 -23z"/>
<path d="M7887 1773 c-87 -111 -150 -203 -142 -211 9 -9 39 28 124 153 78 115
84 125 77 125 -3 0 -29 -30 -59 -67z"/>
<path d="M8181 1728 c-22 -29 -67 -89 -100 -133 -33 -44 -76 -100 -96 -124
-43 -54 -46 -75 -4 -35 57 54 256 330 246 341 -3 3 -24 -19 -46 -49z"/>
<path d="M3102 2115 c-29 -32 -50 -60 -47 -63 9 -9 108 94 103 108 -2 7 -26
-12 -56 -45z"/>
<path d="M4903 1111 c-62 -8 -80 -23 -85 -71 l-3 -35 78 3 c62 2 77 0 77 -12
0 -8 5 -18 11 -22 18 -11 38 19 45 67 5 35 2 49 -11 62 -17 18 -26 18 -112 8z"/>
<path d="M9370 978 c-51 -12 -60 -20 -60 -65 0 -64 64 -84 119 -37 29 24 56
88 45 106 -7 10 -46 9 -104 -4z"/>
<path d="M7235 945 c-17 -16 -25 -35 -25 -59 0 -32 3 -36 33 -41 18 -4 53 -5
77 -3 42 3 46 5 53 38 6 22 5 45 -2 63 -10 24 -15 27 -61 27 -41 0 -56 -5 -75
-25z"/>
<path d="M5316 9000 c-16 -5 -40 -19 -54 -32 -27 -25 -82 -106 -82 -121 0 -5
32 21 71 58 l72 67 69 -4 c56 -5 66 -3 57 8 -11 13 -73 35 -94 33 -5 0 -23 -5
-39 -9z"/>
<path d="M5500 8870 c-23 -15 6 -30 60 -30 25 0 52 5 60 10 23 15 -6 30 -60
30 -25 0 -52 -5 -60 -10z"/>
<path d="M5699 8842 c-50 -32 -86 -75 -69 -80 6 -2 33 11 60 28 69 44 115 49
182 18 64 -30 173 -128 182 -165 11 -39 30 -13 21 28 -10 43 -104 138 -170
169 -28 13 -74 26 -105 28 -48 3 -61 -1 -101 -26z"/>
<path d="M6041 8506 c-16 -19 2 -30 34 -22 32 8 71 -8 117 -49 41 -38 58 -44
58 -21 0 62 -172 137 -209 92z"/>
<path d="M6310 8251 c86 -24 174 -69 243 -126 37 -30 57 -41 57 -31 0 60 -183
166 -298 172 l-67 4 65 -19z"/>
<path d="M3162 8085 c-144 -31 -230 -103 -306 -257 -48 -98 -56 -128 -31 -128
9 0 26 23 39 55 37 83 109 187 152 222 98 77 170 94 387 94 158 -1 213 9 130
23 -67 11 -306 5 -371 -9z"/>
<path d="M2666 7642 c-58 -43 -95 -109 -96 -167 0 -52 37 -119 69 -123 l24 -4
-20 29 c-49 69 -35 150 38 226 39 40 53 49 73 45 31 -6 34 7 7 22 -31 16 -43
12 -95 -28z"/>
<path d="M2411 7343 c-139 -139 -181 -233 -181 -400 0 -115 15 -192 48 -245
38 -60 266 -268 294 -268 14 0 -3 21 -97 120 -158 165 -196 247 -196 417 1
136 47 240 157 354 41 41 74 78 74 82 0 23 -41 -2 -99 -60z"/>
<path d="M2307 7370 c-32 -10 -110 -43 -172 -74 -124 -61 -147 -83 -203 -204
-25 -54 -27 -65 -27 -205 l0 -147 -60 -33 c-89 -50 -145 -141 -145 -239 0 -22
13 -61 35 -102 19 -37 35 -77 35 -91 0 -41 -31 -104 -61 -126 -43 -31 -52 -53
-36 -91 21 -48 137 -153 137 -123 0 3 -20 30 -45 60 -59 73 -65 99 -31 133 22
23 35 27 81 27 l55 0 -30 28 c-54 50 -32 89 44 79 48 -6 43 2 -27 43 -41 24
-58 42 -79 85 -48 96 -30 171 61 252 53 47 100 66 139 54 18 -6 17 -2 -7 46
-24 49 -26 63 -26 183 0 125 1 132 30 183 54 99 136 158 323 232 119 47 125
67 9 30z"/>
<path d="M2507 6368 c-21 -33 -47 -114 -47 -146 1 -49 40 -115 110 -184 39
-37 71 -76 71 -85 1 -10 2 -59 3 -109 1 -79 5 -97 31 -149 23 -45 42 -67 78
-89 42 -26 57 -29 144 -32 l98 -4 -65 15 c-36 9 -89 27 -118 41 -125 61 -170
212 -94 315 18 24 32 48 32 54 0 6 -30 22 -67 35 -142 50 -200 149 -168 285
17 74 15 89 -8 53z"/>
<path d="M9784 6235 c-73 -16 -130 -43 -163 -79 -33 -35 -17 -33 75 12 77 36
82 37 189 37 98 0 117 -3 177 -29 37 -15 88 -47 114 -69 59 -52 122 -148 130
-199 8 -49 24 -49 24 0 0 90 -111 242 -216 295 -90 46 -213 58 -330 32z"/>
<path d="M10370 5943 c0 -5 7 -33 15 -63 8 -30 15 -84 15 -120 1 -59 2 -63 15
-46 33 43 3 236 -36 236 -5 0 -9 -3 -9 -7z"/>
<path d="M1690 5903 c0 -35 77 -168 127 -222 44 -45 99 -64 165 -55 55 8 73
18 63 34 -5 9 -25 11 -65 7 -34 -3 -68 0 -87 8 -40 17 -99 90 -142 178 -39 78
-61 96 -61 50z"/>
<path d="M1477 5623 c18 -2 50 -2 70 0 21 2 7 4 -32 4 -38 0 -55 -2 -38 -4z"/>
<path d="M1695 5600 c-4 -6 7 -10 25 -10 18 0 29 4 25 10 -3 6 -15 10 -25 10
-10 0 -22 -4 -25 -10z"/>
<path d="M10403 5595 c-18 -8 -33 -16 -33 -19 0 -3 35 -3 78 1 l78 6 47 -42
c73 -62 105 -53 46 13 -47 54 -145 72 -216 41z"/>
<path d="M1240 5550 c0 -5 14 -10 30 -10 17 0 30 5 30 10 0 6 -13 10 -30 10
-16 0 -30 -4 -30 -10z"/>
<path d="M1424 5529 c-13 -5 -7 -8 24 -8 23 -1 42 1 42 3 0 8 -48 12 -66 5z"/>
<path d="M1668 5503 c29 -2 74 -2 100 0 26 2 2 3 -53 3 -55 0 -76 -1 -47 -3z"/>
<path d="M1928 5453 c-4 -45 -26 -59 -113 -70 l-60 -7 92 -7 c71 -5 98 -12
119 -28 29 -23 74 -27 105 -11 29 16 24 38 -7 32 -20 -4 -34 5 -70 42 -24 25
-44 55 -44 66 0 36 -19 21 -22 -17z"/>
<path d="M10557 5415 c-21 -8 -53 -27 -70 -41 -30 -26 -30 -27 -7 -20 207 57
256 47 395 -86 139 -131 183 -272 172 -552 -6 -163 -11 -184 -86 -379 -22 -59
-41 -113 -41 -120 0 -6 13 -19 29 -28 37 -21 61 -92 61 -179 0 -79 -14 -125
-47 -161 l-24 -26 28 -12 c37 -14 225 -53 231 -46 6 6 -23 17 -117 45 l-73 22
6 36 c3 20 10 57 15 82 15 65 13 166 -3 203 -7 18 -28 45 -45 60 -18 16 -31
31 -29 35 2 4 22 45 46 92 75 151 115 404 93 592 -8 73 -21 112 -76 236 -36
82 -65 154 -65 161 0 14 28 14 69 0 30 -10 35 -20 43 -74 3 -17 12 -20 60 -23
65 -3 76 -13 94 -80 l13 -47 0 58 c1 79 -20 114 -77 129 -24 6 -57 22 -73 35
-23 20 -50 28 -127 38 -53 7 -132 25 -174 39 -85 29 -161 33 -221 11z"/>
<path d="M1640 5406 c0 -9 39 -13 51 -5 10 6 4 9 -18 9 -18 0 -33 -2 -33 -4z"/>
<path d="M1500 5309 c-52 -10 -145 -54 -172 -81 -22 -22 -100 -37 -203 -39
l-70 -2 88 -8 c123 -10 120 -9 112 -72 l-7 -52 44 60 c54 72 106 120 155 140
65 27 208 37 473 32 140 -3 246 -4 235 -1 -44 9 -443 34 -524 33 -47 -1 -106
-5 -131 -10z"/>
<path d="M1150 5251 c0 -18 67 -33 90 -21 11 6 18 15 15 21 -8 12 -105 12
-105 0z"/>
<path d="M2168 5183 c34 -2 90 -2 125 0 34 2 6 3 -63 3 -69 0 -97 -1 -62 -3z"/>
<path d="M948 5078 c34 -17 27 -43 -17 -63 -29 -13 -41 -24 -43 -43 -4 -35
-46 -63 -109 -71 l-54 -8 38 -7 c51 -11 61 -33 52 -125 -11 -131 -25 -199 -46
-236 -29 -49 -38 -191 -14 -220 15 -19 16 -16 10 52 -8 89 10 139 54 154 l29
10 4 137 c3 112 8 148 27 194 41 105 149 198 229 198 18 0 32 4 32 9 0 14 -84
31 -152 30 -53 0 -59 -2 -40 -11z"/>
<path d="M756 5011 c13 -12 84 -34 91 -28 8 8 -53 37 -79 37 -13 0 -18 -4 -12
-9z"/>
<path d="M11020 3741 c0 -5 9 -11 20 -14 12 -3 18 -11 15 -19 -9 -23 15 -35
89 -43 70 -7 88 7 24 19 -18 3 -53 20 -78 36 -45 30 -70 38 -70 21z"/>
<path d="M11795 3722 c-22 -16 -50 -41 -63 -54 l-23 -25 57 28 c108 55 257 34
345 -48 59 -55 115 -163 127 -243 l8 -55 8 43 c24 129 -63 281 -198 347 -46
22 -77 30 -140 33 -77 4 -83 3 -121 -26z"/>
<path d="M11141 3591 c-56 -20 -110 -61 -79 -61 8 0 41 11 73 26 81 35 131 31
162 -15 27 -40 30 -90 8 -151 -24 -68 -18 -73 28 -25 53 55 85 59 143 15 47
-36 54 -37 54 -7 -1 44 -54 87 -107 87 -37 0 -58 17 -72 59 -20 61 -17 64 45
56 44 -5 55 -4 52 6 -7 20 -44 27 -153 28 -73 0 -115 -5 -154 -18z"/>
<path d="M12302 3224 c-24 -8 -50 -13 -58 -10 -9 3 -14 -1 -14 -13 0 -10 -10
-25 -22 -34 -13 -8 -20 -18 -16 -22 7 -8 27 -1 123 39 84 36 135 34 180 -5 50
-44 68 -84 61 -129 l-6 -37 61 20 60 19 25 -23 c25 -23 38 -22 29 3 -8 21 -59
48 -92 48 -34 0 -51 17 -82 77 -12 24 -33 50 -46 59 -36 24 -149 28 -203 8z"/>
<path d="M12690 2941 c0 -6 13 -40 29 -74 41 -91 47 -131 22 -156 -22 -22 -10
-31 29 -21 23 6 25 11 23 54 -1 32 -13 71 -40 123 -34 69 -63 103 -63 74z"/>
<path d="M12648 2620 c17 -4 47 -4 65 0 25 6 19 8 -33 8 -52 0 -58 -2 -32 -8z"/>
<path d="M11814 2132 c13 -21 193 -48 551 -82 232 -22 305 -25 305 -11 0 20
-174 42 -460 61 -183 12 -355 28 -384 37 -11 3 -16 1 -12 -5z"/>
<path d="M11900 1967 c6 -6 382 -31 630 -42 154 -7 114 10 -56 24 -158 13
-581 26 -574 18z"/>
<path d="M3030 852 c0 -4 45 -17 100 -29 102 -21 169 -19 237 8 26 10 27 12 8
19 -26 11 -345 13 -345 2z"/>
<path d="M2562 831 c-22 -14 23 -21 128 -20 110 0 158 12 95 22 -57 10 -208 8
-223 -2z"/>
<path d="M2200 816 c-19 -8 -59 -24 -89 -35 -29 -12 -89 -26 -133 -32 -43 -5
-91 -15 -106 -21 -26 -11 -24 -12 36 -22 60 -11 62 -12 45 -29 -14 -14 -15
-19 -5 -26 14 -9 -29 -21 -72 -21 -45 0 -122 31 -161 65 l-40 34 53 -6 c51 -6
52 -5 52 21 0 31 -11 32 -82 7 -94 -34 -157 -44 -242 -38 -72 5 -79 4 -62 -9
11 -8 38 -14 60 -14 193 -2 224 -5 248 -26 46 -43 83 -54 175 -54 95 1 156 11
216 37 43 19 46 26 15 41 -22 10 -22 11 8 11 17 1 52 15 79 33 l48 32 66 -19
c239 -66 302 -78 315 -56 11 17 -22 31 -99 41 -100 13 -203 44 -249 75 -20 14
-38 25 -39 25 -1 -1 -18 -7 -37 -14z"/>
<path d="M2927 749 c-10 -6 -59 -15 -109 -19 -158 -15 -140 -45 27 -45 79 0
106 4 127 18 21 15 31 16 47 7 12 -6 22 -15 22 -20 1 -6 2 -16 3 -22 6 -65
490 -127 600 -77 14 7 26 16 26 21 0 5 -77 8 -179 6 -171 -3 -212 2 -137 16
19 4 51 18 72 33 33 22 57 28 149 37 68 7 105 15 97 20 -19 12 -253 10 -337
-3 -105 -16 -150 -13 -260 14 -112 28 -123 29 -148 14z"/>
<path d="M2415 629 c-70 -16 -147 -40 -143 -44 2 -2 100 -16 218 -30 118 -15
222 -29 230 -32 23 -9 -197 -52 -267 -53 -34 0 -97 7 -140 15 -104 20 -137 19
-208 -6 -113 -39 -286 -44 -444 -13 -33 7 -44 -9 -15 -20 35 -13 258 -26 464
-26 248 0 427 13 489 35 62 21 91 19 179 -15 103 -39 153 -49 242 -50 94 0
126 9 214 62 69 42 70 43 41 49 -17 4 -55 7 -85 8 -80 2 -270 23 -270 31 0 3
21 17 48 30 l47 24 -180 12 c-99 6 -200 17 -225 23 -53 13 -139 13 -195 0z
m193 -40 c69 -17 74 -29 12 -29 -60 0 -126 15 -135 30 -8 14 65 13 123 -1z
m-378 -119 c0 -5 -11 -10 -25 -10 -14 0 -25 5 -25 10 0 6 11 10 25 10 14 0 25
-4 25 -10z m936 -13 c14 -14 -19 -35 -64 -42 -61 -8 -183 10 -236 35 l-41 20
167 -3 c92 -1 170 -6 174 -10z"/>
<path d="M10660 572 c0 -13 103 -32 239 -43 139 -10 610 -11 666 0 l40 7 -38
8 c-21 4 -221 11 -445 16 -224 6 -419 13 -434 16 -16 4 -28 2 -28 -4z"/>
<path d="M11723 479 c-39 -23 -72 -32 -145 -41 -51 -6 -97 -15 -103 -20 -21
-19 21 -29 100 -25 125 7 238 59 222 102 -8 20 -13 19 -74 -16z"/>
<path d="M12355 489 c-22 -4 -96 -9 -165 -9 -69 -1 -136 -5 -150 -9 -38 -11
141 -35 209 -28 60 7 148 33 157 48 6 10 5 10 -51 -2z"/>
<path d="M10606 421 c19 -19 143 -30 204 -19 33 5 60 14 60 19 0 5 -62 9 -137
9 -82 0 -133 -4 -127 -9z"/>
<path d="M4850 378 c-73 -31 -79 -32 -225 -32 -131 0 -236 10 -325 31 l-25 5
20 -21 c54 -56 490 -113 630 -81 22 4 92 13 155 19 63 6 129 14 145 17 21 4
26 2 16 -4 -32 -22 -3 -39 77 -45 44 -3 107 -16 141 -28 34 -11 64 -19 67 -16
3 2 -32 27 -76 53 -152 91 -136 86 -229 78 -159 -12 -198 -8 -244 26 -22 16
-43 30 -46 30 -4 -1 -40 -15 -81 -32z"/>
<path d="M4013 323 c-18 -2 -33 -8 -33 -13 0 -14 29 -20 98 -20 64 0 104 12
90 25 -8 9 -114 14 -155 8z"/>
<path d="M3380 302 c0 -15 34 -40 75 -58 57 -24 258 -26 299 -3 l30 17 -30 14
c-16 9 -47 18 -69 22 -22 4 -51 10 -65 12 l-25 5 24 -20 c20 -18 21 -22 6 -27
-30 -12 -157 6 -190 26 -34 21 -55 25 -55 12z"/>
<path d="M6115 300 c-16 -4 -51 -8 -77 -9 -27 0 -48 -5 -48 -11 0 -25 135 -71
250 -85 30 -4 79 -18 109 -32 47 -22 63 -24 115 -19 34 4 81 17 105 28 48 23
56 22 175 -22 33 -12 82 -24 110 -26 47 -5 50 -4 32 10 -22 18 -176 70 -254
85 -28 6 -143 14 -255 17 -111 4 -213 11 -226 16 l-24 9 23 24 c25 27 19 29
-35 15z"/>
<path d="M12028 288 c-16 -5 -28 -14 -28 -18 0 -5 -39 -11 -87 -12 l-87 -3 55
-29 c67 -37 115 -37 224 -2 99 32 120 32 196 1 73 -29 129 -41 129 -27 0 5
-21 17 -47 27 -27 9 -72 30 -100 46 -47 26 -62 29 -140 28 -49 0 -100 -5 -115
-11z"/>
<path d="M8375 280 c-14 -6 -3 -9 39 -9 33 -1 57 1 55 3 -11 9 -76 14 -94 6z"/>
<path d="M8965 240 c-202 -32 -286 -38 -395 -26 -68 8 -73 7 -61 -8 42 -50
450 -105 681 -92 139 8 172 26 50 26 -106 1 -374 17 -417 26 -72 14 -13 24
150 24 121 0 190 4 230 15 79 20 81 20 259 -25 87 -22 195 -44 240 -50 79 -10
336 -14 327 -6 -2 2 -58 9 -124 16 -158 15 -286 41 -442 90 -113 36 -138 40
-223 39 -52 0 -176 -14 -275 -29z"/>
<path d="M5669 240 c27 -23 56 -23 56 0 0 10 -12 16 -40 18 l-40 2 24 -20z"/>
<path d="M7103 230 c-15 -6 -21 -15 -17 -25 7 -18 1 -18 57 1 26 9 47 20 47
25 0 11 -58 11 -87 -1z"/>
<path d="M11200 209 c-36 -10 -84 -18 -107 -18 -54 -1 -55 -17 -3 -32 51 -15
139 2 177 35 37 32 14 37 -67 15z"/>
<path d="M7235 170 c-3 -5 7 -15 22 -23 37 -19 93 -29 93 -17 0 21 -104 58
-115 40z"/>
<path d="M7410 130 c0 -5 12 -10 26 -10 14 0 23 4 19 10 -3 6 -15 10 -26 10
-10 0 -19 -4 -19 -10z"/>
<path d="M10300 130 c0 -5 18 -10 40 -10 22 0 40 5 40 10 0 6 -18 10 -40 10
-22 0 -40 -4 -40 -10z"/>
<path d="M11431 121 c-27 -17 51 -30 222 -37 186 -7 356 2 303 17 -17 5 -129
11 -250 14 -122 4 -230 8 -241 10 -11 2 -26 0 -34 -4z"/>
<path d="M5705 103 c-47 -7 -52 -21 -10 -29 44 -8 176 -1 195 11 11 7 9 10 -6
16 -20 8 -128 9 -179 2z"/>
<path d="M7486 49 c16 -26 82 -42 189 -45 l110 -4 -97 20 c-54 10 -115 24
-135 29 -50 14 -76 14 -67 0z"/>
<path d="M8370 41 c0 -10 58 -21 113 -21 20 0 37 4 37 9 0 10 -58 21 -112 21
-21 0 -38 -4 -38 -9z"/>
<path d="M7868 33 c18 -2 45 -2 60 0 15 2 0 4 -33 4 -33 0 -45 -2 -27 -4z"/>
</g>
</svg>
