<svg width="54" height="60" viewBox="0 0 54 60" fill="none" xmlns="http://www.w3.org/2000/svg">
<g clip-path="url(#clip0_9_10)">
<ellipse cx="21.5" cy="20.808" rx="19.5" ry="19.3727" fill="url(#paint0_linear_9_10)"/>
<path d="M53.305 46.585C53.9983 47.1917 54.345 47.95 54.345 48.86C54.345 49.4667 54.1933 49.9867 53.89 50.42C51.7667 53.3667 49.08 55.7283 45.83 57.505C42.58 59.2817 39.0483 60.17 35.235 60.17C32.0283 60.17 29.0167 59.5417 26.2 58.285C23.3833 56.985 20.9133 55.23 18.79 53.02C16.6667 50.7667 14.9983 48.1667 13.785 45.22C12.5717 42.2733 11.965 39.1317 11.965 35.795C11.965 32.415 12.5717 29.2733 13.785 26.37C14.9983 23.4233 16.6667 20.845 18.79 18.635C20.9133 16.3817 23.3833 14.6267 26.2 13.37C29.0167 12.1133 32.0283 11.485 35.235 11.485C38.485 11.485 41.345 12.005 43.815 13.045C46.3283 14.085 48.56 15.5367 50.51 17.4C51.3767 18.2233 52.1567 19.1333 52.85 20.13C53.5433 21.1267 53.89 22.21 53.89 23.38C53.89 24.4633 53.5 25.4167 52.72 26.24C51.94 27.0633 50.9867 27.475 49.86 27.475C48.69 27.475 47.7367 27.0633 47 26.24C46.2633 25.4167 45.895 24.485 45.895 23.445C45.895 22.6217 46.1117 21.9067 46.545 21.3C46.7617 20.9533 46.74 20.6717 46.48 20.455C45.0933 18.9383 43.4033 17.8767 41.41 17.27C39.46 16.62 37.4017 16.295 35.235 16.295C31.725 16.295 28.605 17.1617 25.875 18.895C23.145 20.6283 20.9783 22.9683 19.375 25.915C17.815 28.8183 17.035 32.1117 17.035 35.795C17.035 39.4783 17.8367 42.7717 19.44 45.675C21.0433 48.5783 23.21 50.875 25.94 52.565C28.7133 54.2117 31.8117 55.035 35.235 55.035C38.355 55.035 41.215 54.3417 43.815 52.955C46.415 51.525 48.5167 49.5967 50.12 47.17C50.5967 46.4767 51.225 46.13 52.005 46.13C52.525 46.13 52.9583 46.2817 53.305 46.585Z" fill="black"/>
<path d="M15.871 12.718C15.7723 12.7673 15.723 12.8413 15.723 12.94C15.723 13.014 15.7847 13.0757 15.908 13.125C17.3387 13.8157 18.4363 14.7407 19.201 15.9C19.9657 17.0347 20.348 18.305 20.348 19.711C20.348 21.0183 20.089 22.153 19.571 23.115C19.053 24.077 18.3623 24.8663 17.499 25.483C16.6603 26.0997 15.723 26.5683 14.687 26.889C13.6757 27.185 12.652 27.333 11.616 27.333H4.734C4.24067 27.333 3.72267 27.37 3.18 27.444C2.662 27.518 2.15633 27.5797 1.663 27.629C1.219 27.703 0.824333 27.5797 0.479 27.259C0.158333 26.963 -0.00199995 26.5807 -0.00199995 26.112C-0.00199995 25.668 0.158333 25.298 0.479 25.002C0.824333 24.6813 1.219 24.558 1.663 24.632C1.93433 24.6567 2.20567 24.6937 2.477 24.743C2.74833 24.7677 3.00733 24.7923 3.254 24.817H3.328C3.50067 24.817 3.587 24.7183 3.587 24.521V3.098C3.587 2.90067 3.50067 2.802 3.328 2.802C3.032 2.802 2.74833 2.839 2.477 2.913C2.20567 2.987 1.93433 3.024 1.663 3.024C1.26833 3.024 0.923 2.876 0.627 2.58C0.355667 2.25933 0.22 1.90167 0.22 1.507C0.22 1.03833 0.380333 0.656 0.701 0.359999C1.04633 0.039332 1.441 -0.0840012 1.885 -0.0100007C2.255 0.039332 2.63733 0.0886654 3.032 0.138C3.45133 0.187332 3.85833 0.224332 4.253 0.248998L10.654 0.285998C12.2573 0.285998 13.6017 0.507998 14.687 0.951998C15.797 1.396 16.685 1.97567 17.351 2.691C18.017 3.38167 18.498 4.134 18.794 4.948C19.1147 5.73733 19.275 6.502 19.275 7.242C19.275 8.47533 18.9543 9.54833 18.313 10.461C17.6963 11.3737 16.8823 12.126 15.871 12.718ZM16.463 7.242C16.463 6.15667 16.0067 5.19467 15.094 4.356C14.1813 3.51733 12.7013 3.098 10.654 3.098H6.806C6.584 3.098 6.473 3.209 6.473 3.431V11.608C6.473 11.83 6.584 11.941 6.806 11.941H9.988C12.3807 11.8177 14.058 11.349 15.02 10.535C15.982 9.69633 16.463 8.59867 16.463 7.242ZM6.806 14.642C6.584 14.642 6.473 14.753 6.473 14.975V24.188C6.473 24.41 6.584 24.521 6.806 24.521H11.616C13.096 24.521 14.2677 24.2867 15.131 23.818C15.9943 23.3493 16.611 22.745 16.981 22.005C17.3757 21.265 17.573 20.5003 17.573 19.711C17.573 19.119 17.462 18.527 17.24 17.935C17.0427 17.3183 16.6603 16.7633 16.093 16.27C15.5257 15.7767 14.7117 15.382 13.651 15.086C12.615 14.79 11.2583 14.642 9.581 14.642H6.806Z" fill="black"/>
</g>
<defs>
<linearGradient id="paint0_linear_9_10" x1="21.5" y1="1.4353" x2="21.5" y2="40.1806" gradientUnits="userSpaceOnUse">
<stop stop-color="#3882F6"/>
<stop offset="1" stop-color="#E5E7EB"/>
</linearGradient>
<clipPath id="clip0_9_10">
<rect width="54" height="60" fill="white"/>
</clipPath>
</defs>
</svg>
