<svg width="175" height="30" viewBox="0 0 580 84" fill="none" xmlns="http://www.w3.org/2000/svg">
<g clip-path="url(#clip0_0_1)">
<g filter="url(#filter0_d_0_1)">
<path d="M60.48 2.216C61.44 4.968 62.4 7.688 63.36 10.376C64.32 13.064 65.248 15.848 66.144 18.728C65.632 18.856 65.152 19.016 64.704 19.208C64.32 19.4 63.872 19.56 63.36 19.688C62.144 17 60.96 14.824 59.808 13.16C58.72 11.432 57.632 10.056 56.544 9.032C55.136 7.752 53.472 6.888 51.552 6.44C49.632 5.992 47.744 5.768 45.888 5.768C42.176 5.768 39.744 6.056 38.592 6.632C37.312 7.208 36.672 8.36 36.672 10.088V61.064C36.672 62.92 37.376 64.232 38.784 65C40.064 65.704 42.848 66.056 47.136 66.056V69.128H20.064V66.056C23.904 66.056 26.496 65.736 27.84 65.096C29.632 64.264 30.528 62.92 30.528 61.064V9.32C30.528 7.976 30.016 7.048 28.992 6.536C28.032 6.024 26.08 5.768 23.136 5.768C20.896 5.768 18.592 5.96 16.224 6.344C13.92 6.728 11.936 7.624 10.272 9.032C9.568 9.608 8.896 10.312 8.256 11.144C7.616 11.912 6.88 12.936 6.048 14.216C5.536 15.048 5.056 15.88 4.608 16.712C4.16 17.48 3.68 18.312 3.168 19.208C2.784 19.016 2.4 18.856 2.016 18.728C1.696 18.536 1.344 18.344 0.96 18.152C1.92 15.464 2.88 12.808 3.84 10.184C4.8 7.56 5.76 4.904 6.72 2.216H60.48ZM111.959 47.336C111.959 54.504 109.911 60.232 105.815 64.52C101.911 68.808 96.9193 70.952 90.8393 70.952C84.6953 70.952 79.6713 68.808 75.7673 64.52C71.6713 60.232 69.6233 54.504 69.6233 47.336C69.6233 40.168 71.6713 34.44 75.7673 30.152C79.6713 25.864 84.6953 23.72 90.8393 23.72C96.9193 23.72 101.911 25.864 105.815 30.152C109.911 34.44 111.959 40.168 111.959 47.336ZM105.431 47.336C105.431 41.448 104.023 36.616 101.207 32.84C98.5833 29.064 95.1273 27.176 90.8393 27.176C86.6153 27.176 83.0953 29.064 80.2793 32.84C77.5273 36.616 76.1513 41.448 76.1513 47.336C76.1513 53.16 77.4953 57.992 80.1833 61.832C82.9353 65.544 86.4873 67.4 90.8393 67.4C94.9993 67.4 98.4553 65.544 101.207 61.832C104.023 58.056 105.431 53.224 105.431 47.336ZM162.083 68.648C160.099 68.648 158.147 68.712 156.227 68.84C154.307 69.032 152.387 69.288 150.467 69.608C150.403 68.776 150.339 67.944 150.275 67.112C150.275 66.344 150.243 65.576 150.179 64.808C146.019 68.904 140.739 70.952 134.339 70.952C131.011 70.952 128.355 70.248 126.371 68.84C123.427 66.856 121.955 63.592 121.955 59.048V33.608C121.955 32.264 121.635 31.368 120.995 30.92C119.907 30.28 118.275 29.96 116.099 29.96C116.035 29.64 116.003 29.32 116.003 29C116.003 28.616 115.971 28.264 115.907 27.944C117.955 27.24 119.939 26.568 121.859 25.928C123.843 25.288 125.827 24.648 127.811 24.008V58.568C127.811 63.624 130.627 66.152 136.259 66.152C142.083 66.152 146.723 64.52 150.179 61.256V33.416C150.179 32.584 149.859 31.976 149.219 31.592C148.195 30.376 146.595 29.768 144.419 29.768C144.355 29.448 144.323 29.128 144.323 28.808C144.323 28.488 144.291 28.168 144.227 27.848C148.067 26.44 152.003 25.128 156.035 23.912V60.872C156.035 61.576 156.131 62.152 156.323 62.6C156.451 62.984 156.579 63.336 156.707 63.656C156.835 63.912 156.963 64.136 157.091 64.328C158.051 65.416 159.715 65.96 162.083 65.96V68.648ZM201.521 28.136C201.521 31.464 200.049 33.128 197.105 33.128C195.889 33.128 194.545 32.584 193.073 31.496C191.985 30.6 190.801 30.152 189.521 30.152C187.857 30.152 185.777 31.112 183.281 33.032C181.297 34.568 179.377 36.328 177.521 38.312V61.544C177.521 63.336 177.841 64.52 178.481 65.096C179.185 65.736 180.945 66.056 183.761 66.056V69.128H165.521V66.056C167.185 66.056 168.465 65.928 169.361 65.672C170.257 65.416 170.865 65.032 171.185 64.52C171.505 64.008 171.665 63.208 171.665 62.12V34.088C171.665 32.808 171.441 31.944 170.993 31.496C170.737 31.24 170.193 30.952 169.361 30.632C168.465 30.44 167.377 30.344 166.097 30.344C165.969 30.024 165.873 29.704 165.809 29.384C165.745 29.064 165.649 28.744 165.521 28.424C167.569 27.592 169.585 26.792 171.569 26.024C173.553 25.192 175.537 24.36 177.521 23.528V33.416C179.057 31.944 180.593 30.6 182.129 29.384C183.665 28.168 185.169 27.144 186.641 26.312C189.841 24.456 192.945 23.528 195.953 23.528C199.665 23.528 201.521 25.064 201.521 28.136Z" fill="white"/>
</g>
<g filter="url(#filter1_d_0_1)">
<path d="M253.968 49.352C254.416 49.544 254.864 49.768 255.312 50.024C255.824 50.28 256.304 50.504 256.752 50.696C254.32 57.16 250.96 61.96 246.672 65.096C242.128 68.744 236.816 70.568 230.736 70.568C226.32 70.568 222.32 69.704 218.736 67.976C215.152 66.248 212.016 63.72 209.328 60.392C204.4 53.8 201.936 45.64 201.936 35.912C201.936 25.992 204.4 17.704 209.328 11.048C214.512 4.2 221.168 0.775997 229.296 0.775997C234.416 0.775997 238.8 1.736 242.448 3.65599C243.344 3.272 244.272 2.92 245.232 2.6C246.192 2.216 247.12 1.864 248.016 1.544C249.232 4.488 250.416 7.4 251.568 10.28C252.784 13.16 254 16.072 255.216 19.016C254.768 19.208 254.352 19.432 253.968 19.688C253.584 19.88 253.168 20.072 252.72 20.264C250.096 15.976 247.216 12.52 244.08 9.896C240.688 7.144 237.104 5.544 233.328 5.096C232.688 4.968 232.048 4.904 231.408 4.904C230.768 4.904 230.096 4.904 229.392 4.904C225.104 5.096 221.264 6.888 217.872 10.28C216.72 11.432 215.664 12.68 214.704 14.024C210.736 19.72 208.752 26.824 208.752 35.336C208.752 43.656 210.864 50.6 215.088 56.168C215.664 56.872 216.24 57.544 216.816 58.184C217.456 58.824 218.064 59.4 218.64 59.912C220.624 61.896 222.768 63.336 225.072 64.232C227.44 65.128 229.968 65.576 232.656 65.576C236.816 65.576 240.784 64.072 244.56 61.064C248.592 57.8 251.728 53.896 253.968 49.352ZM304.991 47.336C304.991 54.504 302.943 60.232 298.847 64.52C294.943 68.808 289.951 70.952 283.871 70.952C277.727 70.952 272.703 68.808 268.799 64.52C264.703 60.232 262.655 54.504 262.655 47.336C262.655 40.168 264.703 34.44 268.799 30.152C272.703 25.864 277.727 23.72 283.871 23.72C289.951 23.72 294.943 25.864 298.847 30.152C302.943 34.44 304.991 40.168 304.991 47.336ZM298.463 47.336C298.463 41.448 297.055 36.616 294.239 32.84C291.615 29.064 288.159 27.176 283.871 27.176C279.647 27.176 276.127 29.064 273.311 32.84C270.559 36.616 269.183 41.448 269.183 47.336C269.183 53.16 270.527 57.992 273.215 61.832C275.967 65.544 279.519 67.4 283.871 67.4C288.031 67.4 291.487 65.544 294.239 61.832C297.055 58.056 298.463 53.224 298.463 47.336ZM383.338 69.128H364.234V66.056C366.602 66.056 368.33 65.704 369.418 65C370.186 64.232 370.57 63.016 370.57 61.352V36.008C370.57 31.208 367.914 28.808 362.602 28.808C358.57 28.808 354.218 30.728 349.546 34.568V61.352C349.546 63.08 349.962 64.264 350.794 64.904C351.434 65.224 352.17 65.48 353.002 65.672C353.834 65.928 354.794 66.056 355.882 66.056V69.128H337.354V66.056C339.658 66.056 341.354 65.704 342.442 65C343.21 64.36 343.594 63.144 343.594 61.352V35.048C343.594 30.952 341.066 28.904 336.01 28.904C331.466 28.904 326.954 30.92 322.474 34.952V61.352C322.474 63.208 322.89 64.424 323.722 65C325.002 65.704 326.826 66.056 329.194 66.056V69.128H309.802V66.056C312.746 66.056 314.762 65.512 315.85 64.424C316.362 63.72 316.618 62.92 316.618 62.024V34.472C316.618 33.448 316.458 32.648 316.138 32.072C315.882 31.496 315.274 31.048 314.314 30.728C313.802 30.6 313.226 30.504 312.586 30.44C311.946 30.312 311.178 30.248 310.282 30.248C310.218 29.928 310.154 29.608 310.09 29.288C310.026 28.904 309.962 28.552 309.898 28.232C312.01 27.528 314.122 26.824 316.234 26.12C318.346 25.416 320.426 24.712 322.474 24.008V30.824C327.978 26.28 333.482 24.008 338.986 24.008C344.362 24.008 347.786 26.376 349.258 31.112C354.762 26.376 360.266 24.008 365.77 24.008C369.994 24.008 372.97 25.256 374.698 27.752C375.914 29.544 376.522 31.944 376.522 34.952V61.352C376.522 63.08 376.938 64.264 377.77 64.904C378.282 65.224 379.018 65.48 379.978 65.672C380.938 65.928 382.058 66.056 383.338 66.056V69.128ZM431.118 46.952C431.118 54.12 429.102 59.816 425.07 64.04C421.294 67.88 416.686 69.8 411.246 69.8C405.806 69.8 401.614 68.52 398.67 65.96V75.56C398.67 77.224 399.118 78.44 400.014 79.208C401.102 80.04 402.702 80.456 404.814 80.456V83.624H386.574V80.456C389.134 80.456 390.862 80.04 391.758 79.208C392.398 78.568 392.718 77.352 392.718 75.56V34.184C392.718 33.864 392.654 33.384 392.526 32.744C392.462 32.232 392.27 31.816 391.95 31.496C391.31 30.856 389.646 30.536 386.958 30.536C386.894 30.216 386.83 29.864 386.766 29.48C386.766 29.096 386.734 28.744 386.67 28.424C388.718 27.72 390.734 27.016 392.718 26.312C394.702 25.544 396.686 24.808 398.67 24.104V27.944C401.998 25.384 406.286 24.104 411.534 24.104C417.23 24.104 421.87 26.088 425.454 30.056C429.23 34.408 431.118 40.04 431.118 46.952ZM424.686 47.048C424.686 41.48 423.246 36.968 420.366 33.512C417.55 29.928 413.902 28.136 409.422 28.136C404.942 28.136 401.358 29.576 398.67 32.456V61.16C401.358 64.232 404.942 65.768 409.422 65.768C413.646 65.768 417.198 64.04 420.078 60.584C423.15 56.936 424.686 52.424 424.686 47.048ZM444.152 26.696C447.992 24.904 452.408 24.008 457.4 24.008C461.432 24.008 464.696 25.064 467.192 27.176C469.88 29.608 471.224 33 471.224 37.352V62.216C471.224 62.536 471.224 62.92 471.224 63.368C471.288 63.816 471.352 64.264 471.416 64.712C471.544 65.16 471.704 65.544 471.896 65.864C472.152 66.184 472.44 66.344 472.76 66.344C473.72 66.344 475.096 65.64 476.888 64.232L478.04 65.672C475.224 69.064 472.728 70.76 470.552 70.76C467.736 70.76 466.04 68.968 465.464 65.384C461.496 68.968 456.44 70.76 450.296 70.76C448.184 70.76 446.264 70.536 444.536 70.088C442.872 69.64 441.464 68.936 440.312 67.976C437.944 65.992 436.76 63.208 436.76 59.624C436.76 56.936 437.656 54.536 439.448 52.424C441.304 50.248 443.672 48.456 446.552 47.048C451.48 44.488 457.752 42.728 465.368 41.768V35.816C465.368 33.32 464.6 31.304 463.064 29.768C462.168 28.872 461.112 28.232 459.896 27.848C458.744 27.464 457.496 27.272 456.152 27.272C453.592 27.272 451.416 27.784 449.624 28.808C448.536 29.512 447.672 30.216 447.032 30.92C446.392 31.56 446.072 32.296 446.072 33.128V33.608C446.072 36.744 444.696 38.312 441.944 38.312C439.448 38.312 438.2 36.872 438.2 33.992C438.2 30.984 440.184 28.552 444.152 26.696ZM465.368 45.416C459.736 45.992 454.52 47.592 449.72 50.216C445.368 52.648 443.192 55.752 443.192 59.528C443.192 61.576 444.024 63.24 445.688 64.52C447.352 65.736 449.432 66.344 451.928 66.344C454.232 66.344 456.632 65.896 459.128 65C461.176 64.296 463.256 63.08 465.368 61.352V45.416ZM528.114 69.128H509.394V66.056C511.634 66.056 513.202 65.768 514.098 65.192C515.186 64.488 515.73 63.112 515.73 61.064V36.968C515.73 31.592 513.202 28.904 508.146 28.904C505.138 28.904 502.61 29.416 500.562 30.44C499.666 30.888 498.61 31.496 497.394 32.264C496.178 32.968 494.834 33.832 493.362 34.856V61.064C493.362 62.984 493.778 64.264 494.61 64.904C495.122 65.224 495.826 65.48 496.722 65.672C497.618 65.928 498.706 66.056 499.986 66.056V69.128H481.266V66.056C483.698 66.056 485.458 65.672 486.546 64.904C487.186 64.264 487.506 62.984 487.506 61.064V34.568C487.506 32.84 487.186 31.752 486.546 31.304C485.65 30.6 484.018 30.248 481.65 30.248C481.522 29.928 481.426 29.576 481.362 29.192C481.362 28.808 481.298 28.456 481.17 28.136C483.218 27.432 485.234 26.728 487.218 26.024C489.266 25.32 491.314 24.616 493.362 23.912V30.728C498.802 26.248 504.338 24.008 509.97 24.008C513.874 24.008 516.786 25.128 518.706 27.368C520.626 29.672 521.586 32.936 521.586 37.16V60.968C521.586 62.952 521.97 64.264 522.738 64.904C523.25 65.224 523.954 65.48 524.85 65.672C525.746 65.928 526.834 66.056 528.114 66.056V69.128ZM553.205 65.768L536.981 30.92C536.341 29.704 535.669 28.904 534.965 28.52C534.581 28.328 534.069 28.168 533.429 28.04C532.789 27.912 531.797 27.848 530.453 27.848V24.68H548.789V27.848C547.125 27.848 545.909 27.88 545.141 27.944C544.373 28.008 543.861 28.232 543.605 28.616C543.285 29.064 543.253 29.704 543.509 30.536C543.765 31.304 544.085 32.104 544.469 32.936L556.181 57.992L566.549 33.992C567.253 32.328 567.605 31.144 567.605 30.44C567.605 29.736 567.445 29.192 567.125 28.808C566.805 28.488 566.357 28.264 565.781 28.136C565.205 27.944 564.181 27.848 562.709 27.848V24.68H579.317V27.848C576.693 27.848 574.837 28.2 573.749 28.904C572.405 29.736 571.221 31.4 570.197 33.896L553.781 72.488C551.925 76.712 550.037 79.592 548.117 81.128C546.389 82.472 544.181 83.144 541.493 83.144C540.661 83.144 539.861 83.016 539.093 82.76C538.325 82.568 537.589 82.216 536.885 81.704C535.349 80.552 534.581 79.08 534.581 77.288C534.581 74.152 535.925 72.584 538.613 72.584C541.493 72.584 542.933 73.832 542.933 76.328C542.933 77.288 543.221 77.896 543.797 78.152C544.181 78.344 544.565 78.44 544.949 78.44C545.461 78.44 545.973 78.248 546.485 77.864C547.829 76.84 549.493 74.152 551.477 69.8L553.205 65.768Z" fill="#1C2A78"/>
</g>
</g>
<defs>
<filter id="filter0_d_0_1" x="-3.04001" y="2.216" width="208.561" height="76.736" filterUnits="userSpaceOnUse" color-interpolation-filters="sRGB">
<feFlood flood-opacity="0" result="BackgroundImageFix"/>
<feColorMatrix in="SourceAlpha" type="matrix" values="0 0 0 0 0 0 0 0 0 0 0 0 0 0 0 0 0 0 127 0" result="hardAlpha"/>
<feOffset dy="4"/>
<feGaussianBlur stdDeviation="2"/>
<feComposite in2="hardAlpha" operator="out"/>
<feColorMatrix type="matrix" values="0 0 0 0 0 0 0 0 0 0 0 0 0 0 0 0 0 0 0.25 0"/>
<feBlend mode="normal" in2="BackgroundImageFix" result="effect1_dropShadow_0_1"/>
<feBlend mode="normal" in="SourceGraphic" in2="effect1_dropShadow_0_1" result="shape"/>
</filter>
<filter id="filter1_d_0_1" x="197.936" y="0.776001" width="385.381" height="90.848" filterUnits="userSpaceOnUse" color-interpolation-filters="sRGB">
<feFlood flood-opacity="0" result="BackgroundImageFix"/>
<feColorMatrix in="SourceAlpha" type="matrix" values="0 0 0 0 0 0 0 0 0 0 0 0 0 0 0 0 0 0 127 0" result="hardAlpha"/>
<feOffset dy="4"/>
<feGaussianBlur stdDeviation="2"/>
<feComposite in2="hardAlpha" operator="out"/>
<feColorMatrix type="matrix" values="0 0 0 0 0 0 0 0 0 0 0 0 0 0 0 0 0 0 0.25 0"/>
<feBlend mode="normal" in2="BackgroundImageFix" result="effect1_dropShadow_0_1"/>
<feBlend mode="normal" in="SourceGraphic" in2="effect1_dropShadow_0_1" result="shape"/>
</filter>
<clipPath id="clip0_0_1">
<rect width="580" height="84" fill="white"/>
</clipPath>
</defs>
</svg>
